<svg width="490" height="570" viewBox="0 0 490 570" fill="none" xmlns="http://www.w3.org/2000/svg">
<g filter="url(#filter0_dd_808_549)">
<rect x="25" y="5" width="440" height="520" rx="12" fill="#FFFCF9"/>
<path d="M76.432 81.72C73.472 81.72 70.952 81.064 68.872 79.752C66.792 78.44 65.2 76.496 64.096 73.92C63.008 71.344 62.464 68.152 62.464 64.344C62.464 61.512 62.856 59.024 63.64 56.88C64.424 54.72 65.496 52.92 66.856 51.48C68.232 50.024 69.816 48.928 71.608 48.192C73.416 47.456 75.328 47.088 77.344 47.088C79.68 47.088 81.64 47.44 83.224 48.144C84.808 48.848 86.248 49.808 87.544 51.024L83.968 54.696C82.96 53.784 81.96 53.112 80.968 52.68C79.976 52.248 78.856 52.032 77.608 52.032C76.456 52.032 75.376 52.256 74.368 52.704C73.376 53.152 72.496 53.864 71.728 54.84C70.976 55.816 70.384 57.088 69.952 58.656C69.52 60.224 69.304 62.136 69.304 64.392C69.304 67.384 69.568 69.792 70.096 71.616C70.64 73.424 71.448 74.736 72.52 75.552C73.608 76.352 74.968 76.752 76.6 76.752C77.512 76.752 78.368 76.648 79.168 76.44C79.984 76.216 80.76 75.92 81.496 75.552V67.08H76.504L75.832 62.28H87.76V78.528C86.16 79.472 84.44 80.24 82.6 80.832C80.776 81.424 78.72 81.72 76.432 81.72ZM116.517 71.472C116.517 73.488 115.997 75.264 114.957 76.8C113.933 78.336 112.453 79.544 110.517 80.424C108.581 81.288 106.237 81.72 103.485 81.72C100.605 81.72 98.1333 81.296 96.0693 80.448C94.0053 79.584 92.2773 78.48 90.8853 77.136L94.3413 73.272C95.5413 74.344 96.8853 75.184 98.3733 75.792C99.8613 76.4 101.533 76.704 103.389 76.704C104.573 76.704 105.637 76.52 106.581 76.152C107.541 75.784 108.293 75.248 108.837 74.544C109.397 73.824 109.677 72.944 109.677 71.904C109.677 70.992 109.485 70.224 109.101 69.6C108.717 68.976 108.053 68.416 107.109 67.92C106.181 67.424 104.885 66.928 103.221 66.432C100.773 65.68 98.7573 64.856 97.1733 63.96C95.5893 63.048 94.4133 61.976 93.6453 60.744C92.8773 59.496 92.4933 58.024 92.4933 56.328C92.4933 54.424 93.0213 52.784 94.0773 51.408C95.1333 50.016 96.5573 48.952 98.3493 48.216C100.157 47.464 102.173 47.088 104.397 47.088C106.861 47.088 109.029 47.448 110.901 48.168C112.773 48.872 114.421 49.88 115.845 51.192L112.557 54.912C111.421 53.936 110.189 53.216 108.861 52.752C107.549 52.288 106.213 52.056 104.853 52.056C103.781 52.056 102.821 52.2 101.973 52.488C101.141 52.776 100.485 53.2 100.005 53.76C99.5253 54.32 99.2853 55.032 99.2853 55.896C99.2853 56.68 99.5013 57.352 99.9333 57.912C100.381 58.456 101.141 58.968 102.213 59.448C103.285 59.912 104.757 60.44 106.629 61.032C108.597 61.624 110.317 62.336 111.789 63.168C113.277 64 114.437 65.08 115.269 66.408C116.101 67.72 116.517 69.408 116.517 71.472ZM145.299 71.472C145.299 73.488 144.779 75.264 143.739 76.8C142.715 78.336 141.235 79.544 139.299 80.424C137.363 81.288 135.019 81.72 132.267 81.72C129.387 81.72 126.915 81.296 124.851 80.448C122.787 79.584 121.059 78.48 119.667 77.136L123.123 73.272C124.323 74.344 125.667 75.184 127.155 75.792C128.643 76.4 130.315 76.704 132.171 76.704C133.355 76.704 134.419 76.52 135.363 76.152C136.323 75.784 137.075 75.248 137.619 74.544C138.179 73.824 138.459 72.944 138.459 71.904C138.459 70.992 138.267 70.224 137.883 69.6C137.499 68.976 136.835 68.416 135.891 67.92C134.963 67.424 133.667 66.928 132.003 66.432C129.555 65.68 127.539 64.856 125.955 63.96C124.371 63.048 123.195 61.976 122.427 60.744C121.659 59.496 121.275 58.024 121.275 56.328C121.275 54.424 121.803 52.784 122.859 51.408C123.915 50.016 125.339 48.952 127.131 48.216C128.939 47.464 130.955 47.088 133.179 47.088C135.643 47.088 137.811 47.448 139.683 48.168C141.555 48.872 143.203 49.88 144.627 51.192L141.339 54.912C140.203 53.936 138.971 53.216 137.643 52.752C136.331 52.288 134.995 52.056 133.635 52.056C132.563 52.056 131.603 52.2 130.755 52.488C129.923 52.776 129.267 53.2 128.787 53.76C128.307 54.32 128.067 55.032 128.067 55.896C128.067 56.68 128.283 57.352 128.715 57.912C129.163 58.456 129.923 58.968 130.995 59.448C132.067 59.912 133.539 60.44 135.411 61.032C137.379 61.624 139.099 62.336 140.571 63.168C142.059 64 143.219 65.08 144.051 66.408C144.883 67.72 145.299 69.408 145.299 71.472ZM161.768 54.864C164.296 54.864 166.44 55.416 168.2 56.52C169.96 57.624 171.296 59.184 172.208 61.2C173.136 63.2 173.6 65.544 173.6 68.232C173.6 70.984 173.136 73.368 172.208 75.384C171.28 77.4 169.936 78.96 168.176 80.064C166.416 81.168 164.272 81.72 161.744 81.72C159.232 81.72 157.088 81.184 155.312 80.112C153.552 79.024 152.208 77.48 151.28 75.48C150.352 73.464 149.888 71.064 149.888 68.28C149.888 65.624 150.352 63.288 151.28 61.272C152.208 59.256 153.56 57.688 155.336 56.568C157.112 55.432 159.256 54.864 161.768 54.864ZM161.768 59.64C159.992 59.64 158.664 60.336 157.784 61.728C156.92 63.12 156.488 65.304 156.488 68.28C156.488 71.288 156.92 73.488 157.784 74.88C158.648 76.256 159.968 76.944 161.744 76.944C163.52 76.944 164.84 76.256 165.704 74.88C166.568 73.488 167 71.272 167 68.232C167 65.272 166.568 63.104 165.704 61.728C164.84 60.336 163.528 59.64 161.768 59.64ZM193.309 47.088C195.613 47.088 197.565 47.392 199.165 48C200.765 48.592 202.245 49.448 203.605 50.568L200.269 54.528C199.325 53.728 198.285 53.12 197.149 52.704C196.029 52.288 194.829 52.08 193.549 52.08C192.013 52.08 190.597 52.488 189.301 53.304C188.021 54.12 186.989 55.432 186.205 57.24C185.437 59.032 185.053 61.4 185.053 64.344C185.053 67.24 185.421 69.584 186.157 71.376C186.909 73.168 187.925 74.48 189.205 75.312C190.501 76.128 191.965 76.536 193.597 76.536C195.325 76.536 196.757 76.232 197.893 75.624C199.029 75.016 200.053 74.352 200.965 73.632L204.061 77.544C202.893 78.696 201.429 79.68 199.669 80.496C197.925 81.312 195.805 81.72 193.309 81.72C190.413 81.72 187.829 81.056 185.557 79.728C183.285 78.4 181.501 76.448 180.205 73.872C178.909 71.296 178.261 68.12 178.261 64.344C178.261 60.632 178.925 57.496 180.253 54.936C181.597 52.36 183.405 50.408 185.677 49.08C187.965 47.752 190.509 47.088 193.309 47.088ZM246.816 47.088C249.2 47.088 251.2 47.512 252.816 48.36C254.448 49.208 255.68 50.352 256.512 51.792C257.344 53.216 257.76 54.784 257.76 56.496C257.76 57.904 257.52 59.28 257.04 60.624C256.56 61.968 255.776 63.384 254.688 64.872C253.616 66.36 252.192 68.016 250.416 69.84C248.64 71.648 246.448 73.712 243.84 76.032H258.528L257.832 81H236.592V76.368C238.88 74.16 240.856 72.216 242.52 70.536C244.184 68.84 245.576 67.344 246.696 66.048C247.832 64.752 248.728 63.592 249.384 62.568C250.056 61.528 250.536 60.56 250.824 59.664C251.112 58.768 251.256 57.872 251.256 56.976C251.256 55.456 250.816 54.256 249.936 53.376C249.072 52.496 247.856 52.056 246.288 52.056C244.896 52.056 243.712 52.328 242.736 52.872C241.776 53.4 240.832 54.264 239.904 55.464L235.92 52.44C237.184 50.744 238.688 49.432 240.432 48.504C242.176 47.56 244.304 47.088 246.816 47.088ZM276.869 47.088C280.693 47.088 283.581 48.6 285.533 51.624C287.485 54.632 288.461 58.872 288.461 64.344C288.461 69.832 287.485 74.104 285.533 77.16C283.581 80.2 280.693 81.72 276.869 81.72C273.029 81.72 270.133 80.2 268.181 77.16C266.245 74.104 265.277 69.832 265.277 64.344C265.277 58.872 266.245 54.632 268.181 51.624C270.133 48.6 273.029 47.088 276.869 47.088ZM276.869 51.792C275.061 51.792 273.693 52.76 272.765 54.696C271.853 56.616 271.397 59.832 271.397 64.344C271.397 66.84 271.485 68.912 271.661 70.56C271.853 72.192 272.165 73.48 272.597 74.424C273.029 75.368 273.589 76.04 274.277 76.44C274.981 76.824 275.845 77.016 276.869 77.016C278.085 77.016 279.093 76.608 279.893 75.792C280.709 74.96 281.317 73.616 281.717 71.76C282.117 69.888 282.317 67.416 282.317 64.344C282.317 61.08 282.141 58.536 281.789 56.712C281.453 54.888 280.885 53.616 280.085 52.896C279.301 52.16 278.229 51.792 276.869 51.792ZM281.021 52.872L282.653 56.808L273.197 76.2L271.253 72.984L281.021 52.872ZM304.378 47.088C306.762 47.088 308.762 47.512 310.378 48.36C312.01 49.208 313.242 50.352 314.074 51.792C314.906 53.216 315.322 54.784 315.322 56.496C315.322 57.904 315.082 59.28 314.602 60.624C314.122 61.968 313.338 63.384 312.25 64.872C311.178 66.36 309.754 68.016 307.978 69.84C306.202 71.648 304.01 73.712 301.402 76.032H316.09L315.394 81H294.154V76.368C296.442 74.16 298.418 72.216 300.082 70.536C301.746 68.84 303.138 67.344 304.258 66.048C305.394 64.752 306.29 63.592 306.946 62.568C307.618 61.528 308.098 60.56 308.386 59.664C308.674 58.768 308.818 57.872 308.818 56.976C308.818 55.456 308.378 54.256 307.498 53.376C306.634 52.496 305.418 52.056 303.85 52.056C302.458 52.056 301.274 52.328 300.298 52.872C299.338 53.4 298.394 54.264 297.466 55.464L293.482 52.44C294.746 50.744 296.25 49.432 297.994 48.504C299.738 47.56 301.866 47.088 304.378 47.088ZM339.447 47.808V80.04H333.231V54.192L326.151 58.584L323.439 54.192L333.855 47.808H339.447ZM345.903 76.128V81H325.191V76.128H345.903Z" fill="#FF7A19"/>
<path d="M65.25 100.6C65.6033 100.133 66.02 99.77 66.5 99.51C66.9867 99.2433 67.51 99.11 68.07 99.11C68.9967 99.11 69.7467 99.34 70.32 99.8C70.9 100.253 71.3233 100.897 71.59 101.73C71.8633 102.563 72 103.547 72 104.68C72 105.767 71.84 106.733 71.52 107.58C71.2 108.427 70.7233 109.093 70.09 109.58C69.4633 110.06 68.6933 110.3 67.78 110.3C66.6333 110.3 65.73 109.863 65.07 108.99L64.95 110H62.61V95.18L65.25 94.9V100.6ZM67.1 108.33C67.7733 108.33 68.3 108.043 68.68 107.47C69.06 106.897 69.25 105.977 69.25 104.71C69.25 103.817 69.17 103.107 69.01 102.58C68.8567 102.047 68.6333 101.667 68.34 101.44C68.0533 101.207 67.7067 101.09 67.3 101.09C66.86 101.09 66.47 101.223 66.13 101.49C65.7967 101.757 65.5033 102.087 65.25 102.48V107.22C65.4767 107.573 65.7433 107.847 66.05 108.04C66.3567 108.233 66.7067 108.33 67.1 108.33ZM84.1922 99.41L80.6022 110.02C80.3089 110.887 79.9289 111.63 79.4622 112.25C78.9955 112.87 78.4055 113.36 77.6922 113.72C76.9855 114.087 76.1189 114.303 75.0922 114.37L74.7622 112.46C75.4755 112.36 76.0455 112.21 76.4722 112.01C76.8989 111.81 77.2389 111.547 77.4922 111.22C77.7522 110.893 77.9755 110.487 78.1622 110H77.2622L73.7922 99.41H76.5822L78.9822 108.24L81.4822 99.41H84.1922ZM107.727 109.41C107.333 109.67 106.857 109.883 106.297 110.05C105.737 110.217 105.13 110.3 104.477 110.3C103.183 110.3 102.21 109.967 101.557 109.3C100.903 108.627 100.577 107.733 100.577 106.62V101.28H98.2766V99.41H100.577V97.08L103.217 96.76V99.41H106.717L106.447 101.28H103.217V106.61C103.217 107.157 103.35 107.557 103.617 107.81C103.883 108.063 104.313 108.19 104.907 108.19C105.287 108.19 105.633 108.147 105.947 108.06C106.267 107.967 106.557 107.85 106.817 107.71L107.727 109.41ZM113.219 94.93V100.6C113.659 100.1 114.152 99.7267 114.699 99.48C115.252 99.2333 115.829 99.11 116.429 99.11C117.402 99.11 118.132 99.3867 118.619 99.94C119.112 100.487 119.359 101.257 119.359 102.25V110H116.719V102.84C116.719 102.2 116.619 101.747 116.419 101.48C116.225 101.213 115.892 101.08 115.419 101.08C115.139 101.08 114.865 101.147 114.599 101.28C114.339 101.407 114.092 101.58 113.859 101.8C113.632 102.02 113.419 102.267 113.219 102.54V110H110.579V95.19L113.219 94.93ZM124.821 105.51C124.874 106.17 125.024 106.707 125.271 107.12C125.524 107.533 125.848 107.837 126.241 108.03C126.634 108.223 127.071 108.32 127.551 108.32C128.058 108.32 128.534 108.24 128.981 108.08C129.428 107.92 129.868 107.697 130.301 107.41L131.401 108.92C130.908 109.333 130.318 109.667 129.631 109.92C128.951 110.173 128.201 110.3 127.381 110.3C126.234 110.3 125.268 110.063 124.481 109.59C123.701 109.117 123.111 108.46 122.711 107.62C122.311 106.78 122.111 105.813 122.111 104.72C122.111 103.667 122.308 102.717 122.701 101.87C123.094 101.023 123.661 100.353 124.401 99.86C125.141 99.36 126.034 99.11 127.081 99.11C128.054 99.11 128.894 99.3233 129.601 99.75C130.308 100.177 130.854 100.79 131.241 101.59C131.628 102.383 131.821 103.34 131.821 104.46C131.821 104.64 131.814 104.823 131.801 105.01C131.794 105.197 131.784 105.363 131.771 105.51H124.821ZM127.091 100.97C126.451 100.97 125.924 101.2 125.511 101.66C125.104 102.113 124.864 102.833 124.791 103.82H129.251C129.238 102.927 129.051 102.23 128.691 101.73C128.338 101.223 127.804 100.97 127.091 100.97ZM146.555 110V99.41H148.855L149.045 100.72C149.499 100.187 150.009 99.7867 150.575 99.52C151.142 99.2467 151.752 99.11 152.405 99.11C153.359 99.11 154.085 99.3867 154.585 99.94C155.085 100.487 155.335 101.257 155.335 102.25V110H152.695V103.28C152.695 102.747 152.662 102.32 152.595 102C152.529 101.673 152.402 101.44 152.215 101.3C152.029 101.153 151.759 101.08 151.405 101.08C151.119 101.08 150.842 101.143 150.575 101.27C150.315 101.397 150.069 101.567 149.835 101.78C149.609 101.993 149.395 102.23 149.195 102.49V110H146.555ZM161.188 99.41V106.75C161.188 107.323 161.301 107.727 161.528 107.96C161.754 108.193 162.084 108.31 162.518 108.31C162.931 108.31 163.334 108.187 163.728 107.94C164.121 107.687 164.441 107.367 164.688 106.98V99.41H167.328V110H165.028L164.888 108.7C164.508 109.22 164.021 109.617 163.428 109.89C162.834 110.163 162.221 110.3 161.588 110.3C160.568 110.3 159.804 110.013 159.298 109.44C158.798 108.86 158.548 108.07 158.548 107.07V99.41H161.188ZM178.07 99.11C178.523 99.11 178.91 99.2067 179.23 99.4C179.55 99.5867 179.796 99.9033 179.97 100.35C180.143 100.79 180.23 101.39 180.23 102.15V110H177.93V102.48C177.93 102 177.89 101.66 177.81 101.46C177.736 101.26 177.566 101.16 177.3 101.16C177.08 101.16 176.856 101.227 176.63 101.36C176.41 101.487 176.18 101.717 175.94 102.05V110H173.95V102.48C173.95 102 173.91 101.66 173.83 101.46C173.756 101.26 173.586 101.16 173.32 101.16C173.093 101.16 172.87 101.227 172.65 101.36C172.43 101.487 172.2 101.717 171.96 102.05V110H169.63V99.41H171.6L171.77 100.51C172.083 100.07 172.413 99.7267 172.76 99.48C173.106 99.2333 173.523 99.11 174.01 99.11C174.41 99.11 174.763 99.21 175.07 99.41C175.383 99.6033 175.606 99.9367 175.74 100.41C176.046 100.023 176.39 99.71 176.77 99.47C177.15 99.23 177.583 99.11 178.07 99.11ZM185.172 100.6C185.525 100.133 185.942 99.77 186.422 99.51C186.909 99.2433 187.432 99.11 187.992 99.11C188.919 99.11 189.669 99.34 190.242 99.8C190.822 100.253 191.245 100.897 191.512 101.73C191.785 102.563 191.922 103.547 191.922 104.68C191.922 105.767 191.762 106.733 191.442 107.58C191.122 108.427 190.645 109.093 190.012 109.58C189.385 110.06 188.615 110.3 187.702 110.3C186.555 110.3 185.652 109.863 184.992 108.99L184.872 110H182.532V95.18L185.172 94.9V100.6ZM187.022 108.33C187.695 108.33 188.222 108.043 188.602 107.47C188.982 106.897 189.172 105.977 189.172 104.71C189.172 103.817 189.092 103.107 188.932 102.58C188.779 102.047 188.555 101.667 188.262 101.44C187.975 101.207 187.629 101.09 187.222 101.09C186.782 101.09 186.392 101.223 186.052 101.49C185.719 101.757 185.425 102.087 185.172 102.48V107.22C185.399 107.573 185.665 107.847 185.972 108.04C186.279 108.233 186.629 108.33 187.022 108.33ZM196.774 105.51C196.827 106.17 196.977 106.707 197.224 107.12C197.477 107.533 197.801 107.837 198.194 108.03C198.587 108.223 199.024 108.32 199.504 108.32C200.011 108.32 200.487 108.24 200.934 108.08C201.381 107.92 201.821 107.697 202.254 107.41L203.354 108.92C202.861 109.333 202.271 109.667 201.584 109.92C200.904 110.173 200.154 110.3 199.334 110.3C198.187 110.3 197.221 110.063 196.434 109.59C195.654 109.117 195.064 108.46 194.664 107.62C194.264 106.78 194.064 105.813 194.064 104.72C194.064 103.667 194.261 102.717 194.654 101.87C195.047 101.023 195.614 100.353 196.354 99.86C197.094 99.36 197.987 99.11 199.034 99.11C200.007 99.11 200.847 99.3233 201.554 99.75C202.261 100.177 202.807 100.79 203.194 101.59C203.581 102.383 203.774 103.34 203.774 104.46C203.774 104.64 203.767 104.823 203.754 105.01C203.747 105.197 203.737 105.363 203.724 105.51H196.774ZM199.044 100.97C198.404 100.97 197.877 101.2 197.464 101.66C197.057 102.113 196.817 102.833 196.744 103.82H201.204C201.191 102.927 201.004 102.23 200.644 101.73C200.291 101.223 199.757 100.97 199.044 100.97ZM206.616 110V108.17H208.106V101.23H206.616V99.41H210.116L210.606 101.84C210.993 100.94 211.48 100.263 212.066 99.81C212.653 99.35 213.39 99.12 214.276 99.12C214.616 99.12 214.916 99.1467 215.176 99.2C215.443 99.2533 215.696 99.3233 215.936 99.41L215.146 101.63C214.94 101.577 214.743 101.537 214.556 101.51C214.37 101.477 214.16 101.46 213.926 101.46C213.193 101.46 212.553 101.747 212.006 102.32C211.466 102.887 211.046 103.657 210.746 104.63V108.17H212.856V110H206.616ZM213.706 103.54V100.73L214.066 99.41H215.936L215.466 103.54H213.706ZM222.538 108.35C223.158 108.35 223.655 108.243 224.028 108.03C224.408 107.81 224.598 107.503 224.598 107.11C224.598 106.85 224.535 106.63 224.408 106.45C224.288 106.27 224.048 106.103 223.688 105.95C223.328 105.79 222.788 105.613 222.068 105.42C221.388 105.247 220.792 105.033 220.278 104.78C219.772 104.52 219.375 104.187 219.088 103.78C218.808 103.373 218.668 102.86 218.668 102.24C218.668 101.62 218.842 101.077 219.188 100.61C219.535 100.137 220.035 99.77 220.688 99.51C221.348 99.2433 222.142 99.11 223.068 99.11C223.975 99.11 224.768 99.23 225.448 99.47C226.128 99.7033 226.712 99.9967 227.198 100.35L226.118 101.96C225.692 101.687 225.228 101.467 224.728 101.3C224.235 101.127 223.702 101.04 223.128 101.04C222.508 101.04 222.055 101.13 221.768 101.31C221.488 101.49 221.348 101.74 221.348 102.06C221.348 102.287 221.418 102.48 221.558 102.64C221.705 102.793 221.965 102.943 222.338 103.09C222.718 103.23 223.258 103.4 223.958 103.6C224.645 103.787 225.242 104.007 225.748 104.26C226.262 104.513 226.658 104.85 226.938 105.27C227.218 105.69 227.358 106.24 227.358 106.92C227.358 107.687 227.135 108.32 226.688 108.82C226.242 109.32 225.652 109.693 224.918 109.94C224.192 110.18 223.402 110.3 222.548 110.3C221.548 110.3 220.675 110.157 219.928 109.87C219.182 109.583 218.548 109.213 218.028 108.76L219.398 107.22C219.812 107.547 220.282 107.817 220.808 108.03C221.342 108.243 221.918 108.35 222.538 108.35Z" fill="#FF7A19"/>
<path d="M86.056 179.752C86.056 181.32 85.608 182.672 84.712 183.808C83.832 184.944 82.496 186.016 80.704 187.024C82.912 188.064 84.576 189.344 85.696 190.864C86.816 192.384 87.376 194.104 87.376 196.024C87.376 197.768 86.904 199.376 85.96 200.848C85.032 202.32 83.672 203.504 81.88 204.4C80.088 205.28 77.888 205.72 75.28 205.72C72.688 205.72 70.512 205.288 68.752 204.424C66.992 203.544 65.664 202.384 64.768 200.944C63.872 199.504 63.424 197.92 63.424 196.192C63.424 194.24 63.992 192.56 65.128 191.152C66.28 189.744 67.816 188.616 69.736 187.768C68.008 186.776 66.744 185.704 65.944 184.552C65.144 183.4 64.744 181.904 64.744 180.064C64.744 178.608 65.032 177.328 65.608 176.224C66.184 175.104 66.968 174.168 67.96 173.416C68.968 172.648 70.112 172.072 71.392 171.688C72.672 171.288 74.016 171.088 75.424 171.088C76.896 171.088 78.272 171.28 79.552 171.664C80.848 172.032 81.984 172.584 82.96 173.32C83.936 174.056 84.696 174.96 85.24 176.032C85.784 177.104 86.056 178.344 86.056 179.752ZM80.968 196.024C80.968 194.776 80.688 193.784 80.128 193.048C79.584 192.296 78.776 191.656 77.704 191.128C76.632 190.6 75.304 190.056 73.72 189.496C72.984 189.912 72.32 190.416 71.728 191.008C71.152 191.6 70.688 192.296 70.336 193.096C70 193.896 69.832 194.832 69.832 195.904C69.832 197.456 70.296 198.704 71.224 199.648C72.168 200.592 73.56 201.064 75.4 201.064C77.272 201.064 78.664 200.576 79.576 199.6C80.504 198.608 80.968 197.416 80.968 196.024ZM70.816 180.088C70.816 181.048 71.032 181.848 71.464 182.488C71.896 183.112 72.536 183.656 73.384 184.12C74.232 184.584 75.28 185.04 76.528 185.488C77.76 184.656 78.64 183.832 79.168 183.016C79.712 182.184 79.984 181.208 79.984 180.088C79.984 178.728 79.592 177.632 78.808 176.8C78.04 175.952 76.912 175.528 75.424 175.528C73.968 175.528 72.832 175.92 72.016 176.704C71.216 177.488 70.816 178.616 70.816 180.088ZM116.781 179.584L107.349 190.912L117.693 205H110.229L100.437 191.08L109.797 179.584H116.781ZM100.077 168.76V205H93.7413V169.432L100.077 168.76ZM135.651 179.704V189.448H145.227V194.44H135.651V204.184H130.203V194.44H120.699V189.448H130.203V179.704H135.651Z" fill="#FF7A19"/>
<path d="M72.06 224.26C72.06 224.927 71.9267 225.51 71.66 226.01C71.4 226.51 71.0433 226.93 70.59 227.27C70.1433 227.61 69.64 227.873 69.08 228.06L72.87 234H69.73L66.46 228.49H65.2V234H62.47V220.17H66.54C68.36 220.17 69.7333 220.507 70.66 221.18C71.5933 221.853 72.06 222.88 72.06 224.26ZM69.22 224.26C69.22 223.513 69.0033 222.977 68.57 222.65C68.1367 222.317 67.4833 222.15 66.61 222.15H65.2V226.55H66.7C67.5067 226.55 68.1267 226.37 68.56 226.01C69 225.65 69.22 225.067 69.22 224.26ZM76.8522 229.51C76.9055 230.17 77.0555 230.707 77.3022 231.12C77.5555 231.533 77.8789 231.837 78.2722 232.03C78.6655 232.223 79.1022 232.32 79.5822 232.32C80.0889 232.32 80.5655 232.24 81.0122 232.08C81.4589 231.92 81.8989 231.697 82.3322 231.41L83.4322 232.92C82.9389 233.333 82.3489 233.667 81.6622 233.92C80.9822 234.173 80.2322 234.3 79.4122 234.3C78.2655 234.3 77.2989 234.063 76.5122 233.59C75.7322 233.117 75.1422 232.46 74.7422 231.62C74.3422 230.78 74.1422 229.813 74.1422 228.72C74.1422 227.667 74.3389 226.717 74.7322 225.87C75.1255 225.023 75.6922 224.353 76.4322 223.86C77.1722 223.36 78.0655 223.11 79.1122 223.11C80.0855 223.11 80.9255 223.323 81.6322 223.75C82.3389 224.177 82.8855 224.79 83.2722 225.59C83.6589 226.383 83.8522 227.34 83.8522 228.46C83.8522 228.64 83.8455 228.823 83.8322 229.01C83.8255 229.197 83.8155 229.363 83.8022 229.51H76.8522ZM79.1222 224.97C78.4822 224.97 77.9555 225.2 77.5422 225.66C77.1355 226.113 76.8955 226.833 76.8222 227.82H81.2822C81.2689 226.927 81.0822 226.23 80.7222 225.73C80.3689 225.223 79.8355 224.97 79.1222 224.97ZM95.7244 221.92L96.3844 223.98C95.9844 224.12 95.5344 224.22 95.0344 224.28C94.5344 224.333 93.961 224.36 93.3144 224.36C93.961 224.64 94.451 224.997 94.7844 225.43C95.1244 225.857 95.2944 226.4 95.2944 227.06C95.2944 227.747 95.1177 228.36 94.7644 228.9C94.4177 229.44 93.921 229.863 93.2744 230.17C92.6344 230.477 91.871 230.63 90.9844 230.63C90.711 230.63 90.4677 230.617 90.2544 230.59C90.041 230.563 89.8344 230.527 89.6344 230.48C89.501 230.553 89.3977 230.66 89.3244 230.8C89.251 230.94 89.2144 231.083 89.2144 231.23C89.2144 231.43 89.291 231.603 89.4444 231.75C89.6044 231.89 89.9444 231.96 90.4644 231.96H92.2644C93.0444 231.96 93.7277 232.093 94.3144 232.36C94.9077 232.62 95.3677 232.973 95.6944 233.42C96.0277 233.867 96.1944 234.38 96.1944 234.96C96.1944 236.027 95.731 236.86 94.8044 237.46C93.8777 238.06 92.5244 238.36 90.7444 238.36C89.471 238.36 88.4777 238.23 87.7644 237.97C87.0577 237.71 86.561 237.33 86.2744 236.83C85.9877 236.337 85.8444 235.74 85.8444 235.04H88.1944C88.1944 235.38 88.261 235.66 88.3944 235.88C88.5344 236.1 88.791 236.263 89.1644 236.37C89.5444 236.477 90.0877 236.53 90.7944 236.53C91.501 236.53 92.0544 236.473 92.4544 236.36C92.861 236.247 93.1477 236.083 93.3144 235.87C93.481 235.663 93.5644 235.42 93.5644 235.14C93.5644 234.76 93.4044 234.463 93.0844 234.25C92.7644 234.037 92.311 233.93 91.7244 233.93H89.9744C88.9077 233.93 88.131 233.723 87.6444 233.31C87.1577 232.89 86.9144 232.407 86.9144 231.86C86.9144 231.487 87.0144 231.13 87.2144 230.79C87.421 230.443 87.7144 230.15 88.0944 229.91C87.441 229.563 86.9677 229.15 86.6744 228.67C86.3877 228.183 86.2444 227.597 86.2444 226.91C86.2444 226.143 86.4377 225.477 86.8244 224.91C87.211 224.343 87.7477 223.903 88.4344 223.59C89.121 223.277 89.911 223.12 90.8044 223.12C91.6244 223.127 92.321 223.077 92.8944 222.97C93.4744 222.863 93.9844 222.717 94.4244 222.53C94.871 222.343 95.3044 222.14 95.7244 221.92ZM90.8544 224.88C90.2277 224.88 89.7477 225.063 89.4144 225.43C89.0877 225.797 88.9244 226.283 88.9244 226.89C88.9244 227.517 89.0944 228.013 89.4344 228.38C89.7744 228.747 90.251 228.93 90.8644 228.93C91.471 228.93 91.931 228.753 92.2444 228.4C92.5644 228.04 92.7244 227.527 92.7244 226.86C92.7244 226.193 92.5644 225.697 92.2444 225.37C91.931 225.043 91.4677 224.88 90.8544 224.88ZM104.677 223.41V232.13H107.467V234H98.9366V232.13H102.037V225.28H99.0366V223.41H104.677ZM102.967 218.07C103.453 218.07 103.847 218.22 104.147 218.52C104.453 218.82 104.607 219.193 104.607 219.64C104.607 220.087 104.453 220.463 104.147 220.77C103.847 221.07 103.453 221.22 102.967 221.22C102.48 221.22 102.083 221.07 101.777 220.77C101.47 220.463 101.317 220.087 101.317 219.64C101.317 219.193 101.47 218.82 101.777 218.52C102.083 218.22 102.48 218.07 102.967 218.07ZM114.609 232.35C115.229 232.35 115.725 232.243 116.099 232.03C116.479 231.81 116.669 231.503 116.669 231.11C116.669 230.85 116.605 230.63 116.479 230.45C116.359 230.27 116.119 230.103 115.759 229.95C115.399 229.79 114.859 229.613 114.139 229.42C113.459 229.247 112.862 229.033 112.349 228.78C111.842 228.52 111.445 228.187 111.159 227.78C110.879 227.373 110.739 226.86 110.739 226.24C110.739 225.62 110.912 225.077 111.259 224.61C111.605 224.137 112.105 223.77 112.759 223.51C113.419 223.243 114.212 223.11 115.139 223.11C116.045 223.11 116.839 223.23 117.519 223.47C118.199 223.703 118.782 223.997 119.269 224.35L118.189 225.96C117.762 225.687 117.299 225.467 116.799 225.3C116.305 225.127 115.772 225.04 115.199 225.04C114.579 225.04 114.125 225.13 113.839 225.31C113.559 225.49 113.419 225.74 113.419 226.06C113.419 226.287 113.489 226.48 113.629 226.64C113.775 226.793 114.035 226.943 114.409 227.09C114.789 227.23 115.329 227.4 116.029 227.6C116.715 227.787 117.312 228.007 117.819 228.26C118.332 228.513 118.729 228.85 119.009 229.27C119.289 229.69 119.429 230.24 119.429 230.92C119.429 231.687 119.205 232.32 118.759 232.82C118.312 233.32 117.722 233.693 116.989 233.94C116.262 234.18 115.472 234.3 114.619 234.3C113.619 234.3 112.745 234.157 111.999 233.87C111.252 233.583 110.619 233.213 110.099 232.76L111.469 231.22C111.882 231.547 112.352 231.817 112.879 232.03C113.412 232.243 113.989 232.35 114.609 232.35ZM131.711 233.41C131.318 233.67 130.841 233.883 130.281 234.05C129.721 234.217 129.114 234.3 128.461 234.3C127.168 234.3 126.194 233.967 125.541 233.3C124.888 232.627 124.561 231.733 124.561 230.62V225.28H122.261V223.41H124.561V221.08L127.201 220.76V223.41H130.701L130.431 225.28H127.201V230.61C127.201 231.157 127.334 231.557 127.601 231.81C127.868 232.063 128.298 232.19 128.891 232.19C129.271 232.19 129.618 232.147 129.931 232.06C130.251 231.967 130.541 231.85 130.801 231.71L131.711 233.41ZM134.663 234V232.17H136.153V225.23H134.663V223.41H138.163L138.653 225.84C139.04 224.94 139.526 224.263 140.113 223.81C140.7 223.35 141.436 223.12 142.323 223.12C142.663 223.12 142.963 223.147 143.223 223.2C143.49 223.253 143.743 223.323 143.983 223.41L143.193 225.63C142.986 225.577 142.79 225.537 142.603 225.51C142.416 225.477 142.206 225.46 141.973 225.46C141.24 225.46 140.6 225.747 140.053 226.32C139.513 226.887 139.093 227.657 138.793 228.63V232.17H140.903V234H134.663ZM141.753 227.54V224.73L142.113 223.41H143.983L143.513 227.54H141.753ZM155.005 231.21C155.005 231.617 155.065 231.913 155.185 232.1C155.305 232.28 155.499 232.417 155.765 232.51L155.195 234.28C154.629 234.22 154.145 234.08 153.745 233.86C153.352 233.633 153.049 233.297 152.835 232.85C152.435 233.337 151.929 233.7 151.315 233.94C150.709 234.18 150.072 234.3 149.405 234.3C148.325 234.3 147.469 233.993 146.835 233.38C146.202 232.767 145.885 231.97 145.885 230.99C145.885 229.863 146.325 228.997 147.205 228.39C148.092 227.777 149.345 227.47 150.965 227.47H152.445V226.9C152.445 226.273 152.252 225.82 151.865 225.54C151.479 225.253 150.922 225.11 150.195 225.11C149.855 225.11 149.429 225.157 148.915 225.25C148.409 225.337 147.885 225.473 147.345 225.66L146.715 223.85C147.389 223.597 148.065 223.41 148.745 223.29C149.432 223.17 150.055 223.11 150.615 223.11C152.102 223.11 153.205 223.427 153.925 224.06C154.645 224.687 155.005 225.577 155.005 226.73V231.21ZM150.265 232.39C150.665 232.39 151.069 232.277 151.475 232.05C151.889 231.823 152.212 231.507 152.445 231.1V229.04H151.405C150.425 229.04 149.715 229.197 149.275 229.51C148.842 229.823 148.625 230.267 148.625 230.84C148.625 231.333 148.765 231.717 149.045 231.99C149.325 232.257 149.732 232.39 150.265 232.39ZM167.688 233.41C167.294 233.67 166.818 233.883 166.258 234.05C165.698 234.217 165.091 234.3 164.438 234.3C163.144 234.3 162.171 233.967 161.518 233.3C160.864 232.627 160.538 231.733 160.538 230.62V225.28H158.238V223.41H160.538V221.08L163.178 220.76V223.41H166.678L166.408 225.28H163.178V230.61C163.178 231.157 163.311 231.557 163.578 231.81C163.844 232.063 164.274 232.19 164.868 232.19C165.248 232.19 165.594 232.147 165.908 232.06C166.228 231.967 166.518 231.85 166.778 231.71L167.688 233.41ZM176.63 223.41V232.13H179.42V234H170.89V232.13H173.99V225.28H170.99V223.41H176.63ZM174.92 218.07C175.406 218.07 175.8 218.22 176.1 218.52C176.406 218.82 176.56 219.193 176.56 219.64C176.56 220.087 176.406 220.463 176.1 220.77C175.8 221.07 175.406 221.22 174.92 221.22C174.433 221.22 174.036 221.07 173.73 220.77C173.423 220.463 173.27 220.087 173.27 219.64C173.27 219.193 173.423 218.82 173.73 218.52C174.036 218.22 174.433 218.07 174.92 218.07ZM186.932 223.11C187.985 223.11 188.879 223.34 189.612 223.8C190.345 224.26 190.902 224.91 191.282 225.75C191.669 226.583 191.862 227.56 191.862 228.68C191.862 229.827 191.669 230.82 191.282 231.66C190.895 232.5 190.335 233.15 189.602 233.61C188.869 234.07 187.975 234.3 186.922 234.3C185.875 234.3 184.982 234.077 184.242 233.63C183.509 233.177 182.949 232.533 182.562 231.7C182.175 230.86 181.982 229.86 181.982 228.7C181.982 227.593 182.175 226.62 182.562 225.78C182.949 224.94 183.512 224.287 184.252 223.82C184.992 223.347 185.885 223.11 186.932 223.11ZM186.932 225.1C186.192 225.1 185.639 225.39 185.272 225.97C184.912 226.55 184.732 227.46 184.732 228.7C184.732 229.953 184.912 230.87 185.272 231.45C185.632 232.023 186.182 232.31 186.922 232.31C187.662 232.31 188.212 232.023 188.572 231.45C188.932 230.87 189.112 229.947 189.112 228.68C189.112 227.447 188.932 226.543 188.572 225.97C188.212 225.39 187.665 225.1 186.932 225.1ZM194.524 234V223.41H196.824L197.014 224.72C197.467 224.187 197.977 223.787 198.544 223.52C199.111 223.247 199.721 223.11 200.374 223.11C201.327 223.11 202.054 223.387 202.554 223.94C203.054 224.487 203.304 225.257 203.304 226.25V234H200.664V227.28C200.664 226.747 200.631 226.32 200.564 226C200.497 225.673 200.371 225.44 200.184 225.3C199.997 225.153 199.727 225.08 199.374 225.08C199.087 225.08 198.811 225.143 198.544 225.27C198.284 225.397 198.037 225.567 197.804 225.78C197.577 225.993 197.364 226.23 197.164 226.49V234H194.524ZM210.546 232.35C211.166 232.35 211.663 232.243 212.036 232.03C212.416 231.81 212.606 231.503 212.606 231.11C212.606 230.85 212.543 230.63 212.416 230.45C212.296 230.27 212.056 230.103 211.696 229.95C211.336 229.79 210.796 229.613 210.076 229.42C209.396 229.247 208.8 229.033 208.286 228.78C207.78 228.52 207.383 228.187 207.096 227.78C206.816 227.373 206.676 226.86 206.676 226.24C206.676 225.62 206.85 225.077 207.196 224.61C207.543 224.137 208.043 223.77 208.696 223.51C209.356 223.243 210.15 223.11 211.076 223.11C211.983 223.11 212.776 223.23 213.456 223.47C214.136 223.703 214.72 223.997 215.206 224.35L214.126 225.96C213.7 225.687 213.236 225.467 212.736 225.3C212.243 225.127 211.71 225.04 211.136 225.04C210.516 225.04 210.063 225.13 209.776 225.31C209.496 225.49 209.356 225.74 209.356 226.06C209.356 226.287 209.426 226.48 209.566 226.64C209.713 226.793 209.973 226.943 210.346 227.09C210.726 227.23 211.266 227.4 211.966 227.6C212.653 227.787 213.25 228.007 213.756 228.26C214.27 228.513 214.666 228.85 214.946 229.27C215.226 229.69 215.366 230.24 215.366 230.92C215.366 231.687 215.143 232.32 214.696 232.82C214.25 233.32 213.66 233.693 212.926 233.94C212.2 234.18 211.41 234.3 210.556 234.3C209.556 234.3 208.683 234.157 207.936 233.87C207.19 233.583 206.556 233.213 206.036 232.76L207.406 231.22C207.82 231.547 208.29 231.817 208.816 232.03C209.35 232.243 209.926 232.35 210.546 232.35Z" fill="#FF7A19"/>
<path d="M277.24 171.808L276.496 176.464H264.016V184.768C264.896 184.336 265.776 184.032 266.656 183.856C267.536 183.68 268.384 183.592 269.2 183.592C270.944 183.592 272.512 184.016 273.904 184.864C275.312 185.712 276.416 186.936 277.216 188.536C278.032 190.12 278.44 192.024 278.44 194.248C278.44 196.472 277.92 198.456 276.88 200.2C275.856 201.928 274.416 203.28 272.56 204.256C270.704 205.232 268.528 205.72 266.032 205.72C263.776 205.72 261.768 205.304 260.008 204.472C258.264 203.64 256.768 202.52 255.52 201.112L259.216 197.68C260.096 198.704 261.08 199.48 262.168 200.008C263.256 200.52 264.424 200.776 265.672 200.776C267.576 200.776 269.088 200.2 270.208 199.048C271.328 197.88 271.888 196.288 271.888 194.272C271.888 192.752 271.672 191.544 271.24 190.648C270.808 189.752 270.216 189.104 269.464 188.704C268.712 188.304 267.848 188.104 266.872 188.104C266.136 188.104 265.408 188.192 264.688 188.368C263.984 188.528 263.224 188.808 262.408 189.208H257.968V171.808H277.24ZM306.021 171.808L305.277 176.464H292.797V184.768C293.677 184.336 294.557 184.032 295.437 183.856C296.317 183.68 297.165 183.592 297.981 183.592C299.725 183.592 301.293 184.016 302.685 184.864C304.093 185.712 305.197 186.936 305.997 188.536C306.813 190.12 307.221 192.024 307.221 194.248C307.221 196.472 306.701 198.456 305.661 200.2C304.637 201.928 303.197 203.28 301.341 204.256C299.485 205.232 297.309 205.72 294.813 205.72C292.557 205.72 290.549 205.304 288.789 204.472C287.045 203.64 285.549 202.52 284.301 201.112L287.997 197.68C288.877 198.704 289.861 199.48 290.949 200.008C292.037 200.52 293.205 200.776 294.453 200.776C296.357 200.776 297.869 200.2 298.989 199.048C300.109 197.88 300.669 196.288 300.669 194.272C300.669 192.752 300.453 191.544 300.021 190.648C299.589 189.752 298.997 189.104 298.245 188.704C297.493 188.304 296.629 188.104 295.653 188.104C294.917 188.104 294.189 188.192 293.469 188.368C292.765 188.528 292.005 188.808 291.189 189.208H286.749V171.808H306.021ZM324.963 171.088C328.787 171.088 331.675 172.6 333.627 175.624C335.579 178.632 336.555 182.872 336.555 188.344C336.555 193.832 335.579 198.104 333.627 201.16C331.675 204.2 328.787 205.72 324.963 205.72C321.123 205.72 318.227 204.2 316.275 201.16C314.339 198.104 313.371 193.832 313.371 188.344C313.371 182.872 314.339 178.632 316.275 175.624C318.227 172.6 321.123 171.088 324.963 171.088ZM324.963 175.792C323.155 175.792 321.787 176.76 320.859 178.696C319.947 180.616 319.491 183.832 319.491 188.344C319.491 190.84 319.579 192.912 319.755 194.56C319.947 196.192 320.259 197.48 320.691 198.424C321.123 199.368 321.683 200.04 322.371 200.44C323.075 200.824 323.939 201.016 324.963 201.016C326.179 201.016 327.187 200.608 327.987 199.792C328.803 198.96 329.411 197.616 329.811 195.76C330.211 193.888 330.411 191.416 330.411 188.344C330.411 185.08 330.235 182.536 329.883 180.712C329.547 178.888 328.979 177.616 328.179 176.896C327.395 176.16 326.323 175.792 324.963 175.792ZM329.115 176.872L330.747 180.808L321.291 200.2L319.347 196.984L329.115 176.872ZM353.744 171.088C357.568 171.088 360.456 172.6 362.408 175.624C364.36 178.632 365.336 182.872 365.336 188.344C365.336 193.832 364.36 198.104 362.408 201.16C360.456 204.2 357.568 205.72 353.744 205.72C349.904 205.72 347.008 204.2 345.056 201.16C343.12 198.104 342.152 193.832 342.152 188.344C342.152 182.872 343.12 178.632 345.056 175.624C347.008 172.6 349.904 171.088 353.744 171.088ZM353.744 175.792C351.936 175.792 350.568 176.76 349.64 178.696C348.728 180.616 348.272 183.832 348.272 188.344C348.272 190.84 348.36 192.912 348.536 194.56C348.728 196.192 349.04 197.48 349.472 198.424C349.904 199.368 350.464 200.04 351.152 200.44C351.856 200.824 352.72 201.016 353.744 201.016C354.96 201.016 355.968 200.608 356.768 199.792C357.584 198.96 358.192 197.616 358.592 195.76C358.992 193.888 359.192 191.416 359.192 188.344C359.192 185.08 359.016 182.536 358.664 180.712C358.328 178.888 357.76 177.616 356.96 176.896C356.176 176.16 355.104 175.792 353.744 175.792ZM357.896 176.872L359.528 180.808L350.072 200.2L348.128 196.984L357.896 176.872ZM385.213 177.784V187.528H394.789V192.52H385.213V202.264H379.765V192.52H370.261V187.528H379.765V177.784H385.213Z" fill="#FF7A19"/>
<path d="M261.55 224.6C261.55 224.027 261.44 223.563 261.22 223.21C261.007 222.85 260.693 222.587 260.28 222.42C259.867 222.253 259.37 222.17 258.79 222.17H257.36V227.18H258.87C259.417 227.18 259.887 227.097 260.28 226.93C260.68 226.757 260.99 226.48 261.21 226.1C261.437 225.72 261.55 225.22 261.55 224.6ZM264.39 224.58C264.39 225.653 264.16 226.533 263.7 227.22C263.247 227.9 262.61 228.403 261.79 228.73C260.97 229.05 260.023 229.21 258.95 229.21H257.36V234H254.62V220.17H258.69C260.483 220.17 261.88 220.533 262.88 221.26C263.887 221.987 264.39 223.093 264.39 224.58ZM275.052 231.21C275.052 231.617 275.112 231.913 275.232 232.1C275.352 232.28 275.546 232.417 275.812 232.51L275.242 234.28C274.676 234.22 274.192 234.08 273.792 233.86C273.399 233.633 273.096 233.297 272.882 232.85C272.482 233.337 271.976 233.7 271.362 233.94C270.756 234.18 270.119 234.3 269.452 234.3C268.372 234.3 267.516 233.993 266.882 233.38C266.249 232.767 265.932 231.97 265.932 230.99C265.932 229.863 266.372 228.997 267.252 228.39C268.139 227.777 269.392 227.47 271.012 227.47H272.492V226.9C272.492 226.273 272.299 225.82 271.912 225.54C271.526 225.253 270.969 225.11 270.242 225.11C269.902 225.11 269.476 225.157 268.962 225.25C268.456 225.337 267.932 225.473 267.392 225.66L266.762 223.85C267.436 223.597 268.112 223.41 268.792 223.29C269.479 223.17 270.102 223.11 270.662 223.11C272.149 223.11 273.252 223.427 273.972 224.06C274.692 224.687 275.052 225.577 275.052 226.73V231.21ZM270.312 232.39C270.712 232.39 271.116 232.277 271.522 232.05C271.936 231.823 272.259 231.507 272.492 231.1V229.04H271.452C270.472 229.04 269.762 229.197 269.322 229.51C268.889 229.823 268.672 230.267 268.672 230.84C268.672 231.333 268.812 231.717 269.092 231.99C269.372 232.257 269.779 232.39 270.312 232.39ZM278.694 234V232.17H280.184V225.23H278.694V223.41H282.194L282.684 225.84C283.071 224.94 283.558 224.263 284.144 223.81C284.731 223.35 285.468 223.12 286.354 223.12C286.694 223.12 286.994 223.147 287.254 223.2C287.521 223.253 287.774 223.323 288.014 223.41L287.224 225.63C287.018 225.577 286.821 225.537 286.634 225.51C286.448 225.477 286.238 225.46 286.004 225.46C285.271 225.46 284.631 225.747 284.084 226.32C283.544 226.887 283.124 227.657 282.824 228.63V232.17H284.934V234H278.694ZM285.784 227.54V224.73L286.144 223.41H288.014L287.544 227.54H285.784ZM299.727 233.41C299.333 233.67 298.857 233.883 298.297 234.05C297.737 234.217 297.13 234.3 296.477 234.3C295.183 234.3 294.21 233.967 293.557 233.3C292.903 232.627 292.577 231.733 292.577 230.62V225.28H290.277V223.41H292.577V221.08L295.217 220.76V223.41H298.717L298.447 225.28H295.217V230.61C295.217 231.157 295.35 231.557 295.617 231.81C295.883 232.063 296.313 232.19 296.907 232.19C297.287 232.19 297.633 232.147 297.947 232.06C298.267 231.967 298.557 231.85 298.817 231.71L299.727 233.41ZM308.669 223.41V232.13H311.459V234H302.929V232.13H306.029V225.28H303.029V223.41H308.669ZM306.959 218.07C307.445 218.07 307.839 218.22 308.139 218.52C308.445 218.82 308.599 219.193 308.599 219.64C308.599 220.087 308.445 220.463 308.139 220.77C307.839 221.07 307.445 221.22 306.959 221.22C306.472 221.22 306.075 221.07 305.769 220.77C305.462 220.463 305.309 220.087 305.309 219.64C305.309 219.193 305.462 218.82 305.769 218.52C306.075 218.22 306.472 218.07 306.959 218.07ZM319.901 232.18C320.368 232.18 320.804 232.093 321.211 231.92C321.624 231.747 322.021 231.527 322.401 231.26L323.601 232.95C323.134 233.343 322.571 233.667 321.911 233.92C321.251 234.173 320.544 234.3 319.791 234.3C318.684 234.3 317.734 234.07 316.941 233.61C316.154 233.143 315.548 232.497 315.121 231.67C314.701 230.837 314.491 229.87 314.491 228.77C314.491 227.683 314.704 226.713 315.131 225.86C315.564 225 316.178 224.327 316.971 223.84C317.771 223.353 318.724 223.11 319.831 223.11C320.591 223.11 321.278 223.22 321.891 223.44C322.511 223.653 323.078 223.973 323.591 224.4L322.421 226.02C322.028 225.747 321.621 225.54 321.201 225.4C320.788 225.253 320.358 225.18 319.911 225.18C319.131 225.18 318.494 225.463 318.001 226.03C317.514 226.59 317.271 227.503 317.271 228.77C317.271 229.603 317.384 230.27 317.611 230.77C317.844 231.27 318.158 231.63 318.551 231.85C318.951 232.07 319.401 232.18 319.901 232.18ZM332.653 223.41V232.13H335.443V234H326.913V232.13H330.013V225.28H327.013V223.41H332.653ZM330.943 218.07C331.43 218.07 331.823 218.22 332.123 218.52C332.43 218.82 332.583 219.193 332.583 219.64C332.583 220.087 332.43 220.463 332.123 220.77C331.823 221.07 331.43 221.22 330.943 221.22C330.456 221.22 330.06 221.07 329.753 220.77C329.446 220.463 329.293 220.087 329.293 219.64C329.293 219.193 329.446 218.82 329.753 218.52C330.06 218.22 330.456 218.07 330.943 218.07ZM344.025 223.11C344.959 223.11 345.705 223.34 346.265 223.8C346.832 224.253 347.242 224.897 347.495 225.73C347.755 226.563 347.885 227.547 347.885 228.68C347.885 229.767 347.729 230.733 347.415 231.58C347.102 232.427 346.642 233.093 346.035 233.58C345.435 234.06 344.695 234.3 343.815 234.3C342.735 234.3 341.862 233.917 341.195 233.15V238.08L338.555 238.36V223.41H340.875L341.015 224.7C341.435 224.153 341.905 223.753 342.425 223.5C342.945 223.24 343.479 223.11 344.025 223.11ZM343.255 225.09C342.809 225.09 342.415 225.223 342.075 225.49C341.742 225.757 341.449 226.087 341.195 226.48V231.22C341.435 231.58 341.709 231.85 342.015 232.03C342.322 232.21 342.669 232.3 343.055 232.3C343.729 232.3 344.242 232.02 344.595 231.46C344.955 230.893 345.135 229.977 345.135 228.71C345.135 227.817 345.062 227.107 344.915 226.58C344.775 226.047 344.565 225.667 344.285 225.44C344.005 225.207 343.662 225.09 343.255 225.09ZM358.998 231.21C358.998 231.617 359.058 231.913 359.178 232.1C359.298 232.28 359.491 232.417 359.758 232.51L359.188 234.28C358.621 234.22 358.138 234.08 357.738 233.86C357.344 233.633 357.041 233.297 356.828 232.85C356.428 233.337 355.921 233.7 355.308 233.94C354.701 234.18 354.064 234.3 353.398 234.3C352.318 234.3 351.461 233.993 350.828 233.38C350.194 232.767 349.878 231.97 349.878 230.99C349.878 229.863 350.318 228.997 351.198 228.39C352.084 227.777 353.338 227.47 354.958 227.47H356.438V226.9C356.438 226.273 356.244 225.82 355.858 225.54C355.471 225.253 354.914 225.11 354.188 225.11C353.848 225.11 353.421 225.157 352.908 225.25C352.401 225.337 351.878 225.473 351.338 225.66L350.708 223.85C351.381 223.597 352.058 223.41 352.738 223.29C353.424 223.17 354.048 223.11 354.608 223.11C356.094 223.11 357.198 223.427 357.918 224.06C358.638 224.687 358.998 225.577 358.998 226.73V231.21ZM354.258 232.39C354.658 232.39 355.061 232.277 355.468 232.05C355.881 231.823 356.204 231.507 356.438 231.1V229.04H355.398C354.418 229.04 353.708 229.197 353.268 229.51C352.834 229.823 352.618 230.267 352.618 230.84C352.618 231.333 352.758 231.717 353.038 231.99C353.318 232.257 353.724 232.39 354.258 232.39ZM362.54 234V223.41H364.84L365.03 224.72C365.483 224.187 365.993 223.787 366.56 223.52C367.126 223.247 367.736 223.11 368.39 223.11C369.343 223.11 370.07 223.387 370.57 223.94C371.07 224.487 371.32 225.257 371.32 226.25V234H368.68V227.28C368.68 226.747 368.646 226.32 368.58 226C368.513 225.673 368.386 225.44 368.2 225.3C368.013 225.153 367.743 225.08 367.39 225.08C367.103 225.08 366.826 225.143 366.56 225.27C366.3 225.397 366.053 225.567 365.82 225.78C365.593 225.993 365.38 226.23 365.18 226.49V234H362.54ZM383.672 233.41C383.279 233.67 382.802 233.883 382.242 234.05C381.682 234.217 381.075 234.3 380.422 234.3C379.129 234.3 378.155 233.967 377.502 233.3C376.849 232.627 376.522 231.733 376.522 230.62V225.28H374.222V223.41H376.522V221.08L379.162 220.76V223.41H382.662L382.392 225.28H379.162V230.61C379.162 231.157 379.295 231.557 379.562 231.81C379.829 232.063 380.259 232.19 380.852 232.19C381.232 232.19 381.579 232.147 381.892 232.06C382.212 231.967 382.502 231.85 382.762 231.71L383.672 233.41ZM390.554 232.35C391.174 232.35 391.671 232.243 392.044 232.03C392.424 231.81 392.614 231.503 392.614 231.11C392.614 230.85 392.551 230.63 392.424 230.45C392.304 230.27 392.064 230.103 391.704 229.95C391.344 229.79 390.804 229.613 390.084 229.42C389.404 229.247 388.807 229.033 388.294 228.78C387.787 228.52 387.391 228.187 387.104 227.78C386.824 227.373 386.684 226.86 386.684 226.24C386.684 225.62 386.857 225.077 387.204 224.61C387.551 224.137 388.051 223.77 388.704 223.51C389.364 223.243 390.157 223.11 391.084 223.11C391.991 223.11 392.784 223.23 393.464 223.47C394.144 223.703 394.727 223.997 395.214 224.35L394.134 225.96C393.707 225.687 393.244 225.467 392.744 225.3C392.251 225.127 391.717 225.04 391.144 225.04C390.524 225.04 390.071 225.13 389.784 225.31C389.504 225.49 389.364 225.74 389.364 226.06C389.364 226.287 389.434 226.48 389.574 226.64C389.721 226.793 389.981 226.943 390.354 227.09C390.734 227.23 391.274 227.4 391.974 227.6C392.661 227.787 393.257 228.007 393.764 228.26C394.277 228.513 394.674 228.85 394.954 229.27C395.234 229.69 395.374 230.24 395.374 230.92C395.374 231.687 395.151 232.32 394.704 232.82C394.257 233.32 393.667 233.693 392.934 233.94C392.207 234.18 391.417 234.3 390.564 234.3C389.564 234.3 388.691 234.157 387.944 233.87C387.197 233.583 386.564 233.213 386.044 232.76L387.414 231.22C387.827 231.547 388.297 231.817 388.824 232.03C389.357 232.243 389.934 232.35 390.554 232.35Z" fill="#FF7A19"/>
<path d="M80.416 295.808V328.04H74.2V302.192L67.12 306.584L64.408 302.192L74.824 295.808H80.416ZM86.872 324.128V329H66.16V324.128H86.872ZM102.789 295.088C105.077 295.088 107.029 295.472 108.645 296.24C110.277 296.992 111.525 298.008 112.389 299.288C113.253 300.568 113.685 301.976 113.685 303.512C113.685 304.888 113.397 306.112 112.821 307.184C112.261 308.24 111.477 309.12 110.469 309.824C109.477 310.528 108.325 311.048 107.013 311.384C108.469 311.56 109.773 311.96 110.925 312.584C112.093 313.192 113.021 314.072 113.709 315.224C114.397 316.36 114.741 317.816 114.741 319.592C114.741 321.464 114.237 323.168 113.229 324.704C112.221 326.24 110.789 327.464 108.933 328.376C107.093 329.272 104.909 329.72 102.381 329.72C100.125 329.72 98.0373 329.32 96.1172 328.52C94.1973 327.704 92.5653 326.512 91.2213 324.944L94.9413 321.584C95.8853 322.688 96.9653 323.496 98.1813 324.008C99.4133 324.52 100.693 324.776 102.021 324.776C103.893 324.776 105.389 324.296 106.509 323.336C107.645 322.36 108.213 320.992 108.213 319.232C108.213 317.92 107.965 316.872 107.469 316.088C106.973 315.288 106.269 314.712 105.357 314.36C104.461 313.992 103.397 313.808 102.165 313.808H99.2133L99.9573 309.296H102.045C103.053 309.296 103.965 309.12 104.781 308.768C105.613 308.416 106.269 307.88 106.749 307.16C107.245 306.44 107.493 305.536 107.493 304.448C107.493 303.008 106.989 301.888 105.981 301.088C104.973 300.272 103.709 299.864 102.189 299.864C100.813 299.864 99.5893 300.12 98.5173 300.632C97.4453 301.144 96.4053 301.872 95.3973 302.816L92.1093 299.336C93.5813 297.912 95.2053 296.848 96.9813 296.144C98.7733 295.44 100.709 295.088 102.789 295.088ZM142.802 295.808L142.059 300.464H129.579V308.768C130.459 308.336 131.339 308.032 132.219 307.856C133.099 307.68 133.947 307.592 134.763 307.592C136.507 307.592 138.075 308.016 139.467 308.864C140.875 309.712 141.979 310.936 142.779 312.536C143.595 314.12 144.003 316.024 144.003 318.248C144.003 320.472 143.483 322.456 142.443 324.2C141.419 325.928 139.979 327.28 138.123 328.256C136.267 329.232 134.091 329.72 131.595 329.72C129.339 329.72 127.331 329.304 125.571 328.472C123.827 327.64 122.331 326.52 121.083 325.112L124.779 321.68C125.659 322.704 126.643 323.48 127.731 324.008C128.819 324.52 129.987 324.776 131.234 324.776C133.139 324.776 134.651 324.2 135.771 323.048C136.891 321.88 137.451 320.288 137.451 318.272C137.451 316.752 137.235 315.544 136.803 314.648C136.371 313.752 135.779 313.104 135.027 312.704C134.275 312.304 133.411 312.104 132.435 312.104C131.699 312.104 130.971 312.192 130.251 312.368C129.547 312.528 128.787 312.808 127.971 313.208H123.531V295.808H142.802ZM164.432 301.784V311.528H174.008V316.52H164.432V326.264H158.984V316.52H149.48V311.528H158.984V301.784H164.432Z" fill="#FF7A19"/>
<path d="M71.3 344.17V346.22H68.37V355.95H71.3V358H62.7V355.95H65.63V346.22H62.7V344.17H71.3ZM74.6022 358V347.41H76.9022L77.0922 348.72C77.5455 348.187 78.0555 347.787 78.6222 347.52C79.1889 347.247 79.7989 347.11 80.4522 347.11C81.4055 347.11 82.1322 347.387 82.6322 347.94C83.1322 348.487 83.3822 349.257 83.3822 350.25V358H80.7422V351.28C80.7422 350.747 80.7089 350.32 80.6422 350C80.5755 349.673 80.4489 349.44 80.2622 349.3C80.0755 349.153 79.8055 349.08 79.4522 349.08C79.1655 349.08 78.8889 349.143 78.6222 349.27C78.3622 349.397 78.1155 349.567 77.8822 349.78C77.6555 349.993 77.4422 350.23 77.2422 350.49V358H74.6022ZM90.6244 356.35C91.2444 356.35 91.741 356.243 92.1144 356.03C92.4944 355.81 92.6844 355.503 92.6844 355.11C92.6844 354.85 92.621 354.63 92.4944 354.45C92.3744 354.27 92.1344 354.103 91.7744 353.95C91.4144 353.79 90.8744 353.613 90.1544 353.42C89.4744 353.247 88.8777 353.033 88.3644 352.78C87.8577 352.52 87.461 352.187 87.1744 351.78C86.8944 351.373 86.7544 350.86 86.7544 350.24C86.7544 349.62 86.9277 349.077 87.2744 348.61C87.621 348.137 88.121 347.77 88.7744 347.51C89.4344 347.243 90.2277 347.11 91.1544 347.11C92.061 347.11 92.8544 347.23 93.5344 347.47C94.2144 347.703 94.7977 347.997 95.2844 348.35L94.2044 349.96C93.7777 349.687 93.3144 349.467 92.8144 349.3C92.321 349.127 91.7877 349.04 91.2144 349.04C90.5944 349.04 90.141 349.13 89.8544 349.31C89.5744 349.49 89.4344 349.74 89.4344 350.06C89.4344 350.287 89.5044 350.48 89.6444 350.64C89.791 350.793 90.051 350.943 90.4244 351.09C90.8044 351.23 91.3444 351.4 92.0444 351.6C92.731 351.787 93.3277 352.007 93.8344 352.26C94.3477 352.513 94.7444 352.85 95.0244 353.27C95.3044 353.69 95.4444 354.24 95.4444 354.92C95.4444 355.687 95.221 356.32 94.7744 356.82C94.3277 357.32 93.7377 357.693 93.0044 357.94C92.2777 358.18 91.4877 358.3 90.6344 358.3C89.6344 358.3 88.761 358.157 88.0144 357.87C87.2677 357.583 86.6344 357.213 86.1144 356.76L87.4844 355.22C87.8977 355.547 88.3677 355.817 88.8944 356.03C89.4277 356.243 90.0044 356.35 90.6244 356.35ZM107.727 357.41C107.333 357.67 106.857 357.883 106.297 358.05C105.737 358.217 105.13 358.3 104.477 358.3C103.183 358.3 102.21 357.967 101.557 357.3C100.903 356.627 100.577 355.733 100.577 354.62V349.28H98.2766V347.41H100.577V345.08L103.217 344.76V347.41H106.717L106.447 349.28H103.217V354.61C103.217 355.157 103.35 355.557 103.617 355.81C103.883 356.063 104.313 356.19 104.907 356.19C105.287 356.19 105.633 356.147 105.947 356.06C106.267 355.967 106.557 355.85 106.817 355.71L107.727 357.41ZM116.669 347.41V356.13H119.459V358H110.929V356.13H114.029V349.28H111.029V347.41H116.669ZM114.959 342.07C115.445 342.07 115.839 342.22 116.139 342.52C116.445 342.82 116.599 343.193 116.599 343.64C116.599 344.087 116.445 344.463 116.139 344.77C115.839 345.07 115.445 345.22 114.959 345.22C114.472 345.22 114.075 345.07 113.769 344.77C113.462 344.463 113.309 344.087 113.309 343.64C113.309 343.193 113.462 342.82 113.769 342.52C114.075 342.22 114.472 342.07 114.959 342.07ZM131.711 357.41C131.318 357.67 130.841 357.883 130.281 358.05C129.721 358.217 129.114 358.3 128.461 358.3C127.168 358.3 126.194 357.967 125.541 357.3C124.888 356.627 124.561 355.733 124.561 354.62V349.28H122.261V347.41H124.561V345.08L127.201 344.76V347.41H130.701L130.431 349.28H127.201V354.61C127.201 355.157 127.334 355.557 127.601 355.81C127.868 356.063 128.298 356.19 128.891 356.19C129.271 356.19 129.618 356.147 129.931 356.06C130.251 355.967 130.541 355.85 130.801 355.71L131.711 357.41ZM137.203 347.41V354.75C137.203 355.323 137.316 355.727 137.543 355.96C137.77 356.193 138.1 356.31 138.533 356.31C138.946 356.31 139.35 356.187 139.743 355.94C140.136 355.687 140.456 355.367 140.703 354.98V347.41H143.343V358H141.043L140.903 356.7C140.523 357.22 140.036 357.617 139.443 357.89C138.85 358.163 138.236 358.3 137.603 358.3C136.583 358.3 135.82 358.013 135.313 357.44C134.813 356.86 134.563 356.07 134.563 355.07V347.41H137.203ZM155.695 357.41C155.302 357.67 154.825 357.883 154.265 358.05C153.705 358.217 153.099 358.3 152.445 358.3C151.152 358.3 150.179 357.967 149.525 357.3C148.872 356.627 148.545 355.733 148.545 354.62V349.28H146.245V347.41H148.545V345.08L151.185 344.76V347.41H154.685L154.415 349.28H151.185V354.61C151.185 355.157 151.319 355.557 151.585 355.81C151.852 356.063 152.282 356.19 152.875 356.19C153.255 356.19 153.602 356.147 153.915 356.06C154.235 355.967 154.525 355.85 154.785 355.71L155.695 357.41ZM160.798 353.51C160.851 354.17 161.001 354.707 161.248 355.12C161.501 355.533 161.824 355.837 162.217 356.03C162.611 356.223 163.048 356.32 163.528 356.32C164.034 356.32 164.511 356.24 164.958 356.08C165.404 355.92 165.844 355.697 166.278 355.41L167.378 356.92C166.884 357.333 166.294 357.667 165.608 357.92C164.928 358.173 164.178 358.3 163.358 358.3C162.211 358.3 161.244 358.063 160.458 357.59C159.678 357.117 159.088 356.46 158.688 355.62C158.288 354.78 158.088 353.813 158.088 352.72C158.088 351.667 158.284 350.717 158.678 349.87C159.071 349.023 159.638 348.353 160.378 347.86C161.118 347.36 162.011 347.11 163.058 347.11C164.031 347.11 164.871 347.323 165.578 347.75C166.284 348.177 166.831 348.79 167.217 349.59C167.604 350.383 167.798 351.34 167.798 352.46C167.798 352.64 167.791 352.823 167.778 353.01C167.771 353.197 167.761 353.363 167.748 353.51H160.798ZM163.068 348.97C162.428 348.97 161.901 349.2 161.488 349.66C161.081 350.113 160.841 350.833 160.768 351.82H165.228C165.214 350.927 165.028 350.23 164.668 349.73C164.314 349.223 163.781 348.97 163.068 348.97ZM174.57 356.35C175.19 356.35 175.686 356.243 176.06 356.03C176.44 355.81 176.63 355.503 176.63 355.11C176.63 354.85 176.566 354.63 176.44 354.45C176.32 354.27 176.08 354.103 175.72 353.95C175.36 353.79 174.82 353.613 174.1 353.42C173.42 353.247 172.823 353.033 172.31 352.78C171.803 352.52 171.406 352.187 171.12 351.78C170.84 351.373 170.7 350.86 170.7 350.24C170.7 349.62 170.873 349.077 171.22 348.61C171.566 348.137 172.066 347.77 172.72 347.51C173.38 347.243 174.173 347.11 175.1 347.11C176.006 347.11 176.8 347.23 177.48 347.47C178.16 347.703 178.743 347.997 179.23 348.35L178.15 349.96C177.723 349.687 177.26 349.467 176.76 349.3C176.266 349.127 175.733 349.04 175.16 349.04C174.54 349.04 174.086 349.13 173.8 349.31C173.52 349.49 173.38 349.74 173.38 350.06C173.38 350.287 173.45 350.48 173.59 350.64C173.736 350.793 173.996 350.943 174.37 351.09C174.75 351.23 175.29 351.4 175.99 351.6C176.676 351.787 177.273 352.007 177.78 352.26C178.293 352.513 178.69 352.85 178.97 353.27C179.25 353.69 179.39 354.24 179.39 354.92C179.39 355.687 179.166 356.32 178.72 356.82C178.273 357.32 177.683 357.693 176.95 357.94C176.223 358.18 175.433 358.3 174.58 358.3C173.58 358.3 172.706 358.157 171.96 357.87C171.213 357.583 170.58 357.213 170.06 356.76L171.43 355.22C171.843 355.547 172.313 355.817 172.84 356.03C173.373 356.243 173.95 356.35 174.57 356.35Z" fill="#FF7A19"/>
<path d="M272.416 295.808V328.04H266.2V302.192L259.12 306.584L256.408 302.192L266.824 295.808H272.416ZM278.872 324.128V329H258.16V324.128H278.872ZM293.781 295.088L299.157 297.128L290.949 316.832H307.917V321.656H284.373V317.336L293.781 295.088ZM304.269 308.336V329H298.173L298.101 317.6L298.917 308.336H304.269Z" fill="#FF7A19"/>
<path d="M260.16 343.87C261.12 343.87 261.933 343.997 262.6 344.25C263.267 344.497 263.883 344.853 264.45 345.32L263.06 346.97C262.667 346.637 262.233 346.383 261.76 346.21C261.293 346.037 260.793 345.95 260.26 345.95C259.62 345.95 259.03 346.12 258.49 346.46C257.957 346.8 257.527 347.347 257.2 348.1C256.88 348.847 256.72 349.833 256.72 351.06C256.72 352.267 256.873 353.243 257.18 353.99C257.493 354.737 257.917 355.283 258.45 355.63C258.99 355.97 259.6 356.14 260.28 356.14C261 356.14 261.597 356.013 262.07 355.76C262.543 355.507 262.97 355.23 263.35 354.93L264.64 356.56C264.153 357.04 263.543 357.45 262.81 357.79C262.083 358.13 261.2 358.3 260.16 358.3C258.953 358.3 257.877 358.023 256.93 357.47C255.983 356.917 255.24 356.103 254.7 355.03C254.16 353.957 253.89 352.633 253.89 351.06C253.89 349.513 254.167 348.207 254.72 347.14C255.28 346.067 256.033 345.253 256.98 344.7C257.933 344.147 258.993 343.87 260.16 343.87ZM271.002 347.11C272.056 347.11 272.949 347.34 273.682 347.8C274.416 348.26 274.972 348.91 275.352 349.75C275.739 350.583 275.932 351.56 275.932 352.68C275.932 353.827 275.739 354.82 275.352 355.66C274.966 356.5 274.406 357.15 273.672 357.61C272.939 358.07 272.046 358.3 270.992 358.3C269.946 358.3 269.052 358.077 268.312 357.63C267.579 357.177 267.019 356.533 266.632 355.7C266.246 354.86 266.052 353.86 266.052 352.7C266.052 351.593 266.246 350.62 266.632 349.78C267.019 348.94 267.582 348.287 268.322 347.82C269.062 347.347 269.956 347.11 271.002 347.11ZM271.002 349.1C270.262 349.1 269.709 349.39 269.342 349.97C268.982 350.55 268.802 351.46 268.802 352.7C268.802 353.953 268.982 354.87 269.342 355.45C269.702 356.023 270.252 356.31 270.992 356.31C271.732 356.31 272.282 356.023 272.642 355.45C273.002 354.87 273.182 353.947 273.182 352.68C273.182 351.447 273.002 350.543 272.642 349.97C272.282 349.39 271.736 349.1 271.002 349.1ZM281.234 347.41V354.75C281.234 355.323 281.348 355.727 281.574 355.96C281.801 356.193 282.131 356.31 282.564 356.31C282.978 356.31 283.381 356.187 283.774 355.94C284.168 355.687 284.488 355.367 284.734 354.98V347.41H287.374V358H285.074L284.934 356.7C284.554 357.22 284.068 357.617 283.474 357.89C282.881 358.163 282.268 358.3 281.634 358.3C280.614 358.3 279.851 358.013 279.344 357.44C278.844 356.86 278.594 356.07 278.594 355.07V347.41H281.234ZM290.587 358V347.41H292.887L293.077 348.72C293.53 348.187 294.04 347.787 294.607 347.52C295.173 347.247 295.783 347.11 296.437 347.11C297.39 347.11 298.117 347.387 298.617 347.94C299.117 348.487 299.367 349.257 299.367 350.25V358H296.727V351.28C296.727 350.747 296.693 350.32 296.627 350C296.56 349.673 296.433 349.44 296.247 349.3C296.06 349.153 295.79 349.08 295.437 349.08C295.15 349.08 294.873 349.143 294.607 349.27C294.347 349.397 294.1 349.567 293.867 349.78C293.64 349.993 293.427 350.23 293.227 350.49V358H290.587ZM311.719 357.41C311.325 357.67 310.849 357.883 310.289 358.05C309.729 358.217 309.122 358.3 308.469 358.3C307.175 358.3 306.202 357.967 305.549 357.3C304.895 356.627 304.569 355.733 304.569 354.62V349.28H302.269V347.41H304.569V345.08L307.209 344.76V347.41H310.709L310.439 349.28H307.209V354.61C307.209 355.157 307.342 355.557 307.609 355.81C307.875 356.063 308.305 356.19 308.899 356.19C309.279 356.19 309.625 356.147 309.939 356.06C310.259 355.967 310.549 355.85 310.809 355.71L311.719 357.41ZM314.671 358V356.17H316.161V349.23H314.671V347.41H318.171L318.661 349.84C319.048 348.94 319.534 348.263 320.121 347.81C320.708 347.35 321.444 347.12 322.331 347.12C322.671 347.12 322.971 347.147 323.231 347.2C323.498 347.253 323.751 347.323 323.991 347.41L323.201 349.63C322.994 349.577 322.798 349.537 322.611 349.51C322.424 349.477 322.214 349.46 321.981 349.46C321.248 349.46 320.608 349.747 320.061 350.32C319.521 350.887 319.101 351.657 318.801 352.63V356.17H320.911V358H314.671ZM321.761 351.54V348.73L322.121 347.41H323.991L323.521 351.54H321.761ZM332.653 347.41V356.13H335.443V358H326.913V356.13H330.013V349.28H327.013V347.41H332.653ZM330.943 342.07C331.43 342.07 331.823 342.22 332.123 342.52C332.43 342.82 332.583 343.193 332.583 343.64C332.583 344.087 332.43 344.463 332.123 344.77C331.823 345.07 331.43 345.22 330.943 345.22C330.456 345.22 330.06 345.07 329.753 344.77C329.446 344.463 329.293 344.087 329.293 343.64C329.293 343.193 329.446 342.82 329.753 342.52C330.06 342.22 330.456 342.07 330.943 342.07ZM340.805 353.51C340.859 354.17 341.009 354.707 341.255 355.12C341.509 355.533 341.832 355.837 342.225 356.03C342.619 356.223 343.055 356.32 343.535 356.32C344.042 356.32 344.519 356.24 344.965 356.08C345.412 355.92 345.852 355.697 346.285 355.41L347.385 356.92C346.892 357.333 346.302 357.667 345.615 357.92C344.935 358.173 344.185 358.3 343.365 358.3C342.219 358.3 341.252 358.063 340.465 357.59C339.685 357.117 339.095 356.46 338.695 355.62C338.295 354.78 338.095 353.813 338.095 352.72C338.095 351.667 338.292 350.717 338.685 349.87C339.079 349.023 339.645 348.353 340.385 347.86C341.125 347.36 342.019 347.11 343.065 347.11C344.039 347.11 344.879 347.323 345.585 347.75C346.292 348.177 346.839 348.79 347.225 349.59C347.612 350.383 347.805 351.34 347.805 352.46C347.805 352.64 347.799 352.823 347.785 353.01C347.779 353.197 347.769 353.363 347.755 353.51H340.805ZM343.075 348.97C342.435 348.97 341.909 349.2 341.495 349.66C341.089 350.113 340.849 350.833 340.775 351.82H345.235C345.222 350.927 345.035 350.23 344.675 349.73C344.322 349.223 343.789 348.97 343.075 348.97ZM354.578 356.35C355.198 356.35 355.694 356.243 356.068 356.03C356.448 355.81 356.638 355.503 356.638 355.11C356.638 354.85 356.574 354.63 356.448 354.45C356.328 354.27 356.088 354.103 355.728 353.95C355.368 353.79 354.828 353.613 354.108 353.42C353.428 353.247 352.831 353.033 352.318 352.78C351.811 352.52 351.414 352.187 351.128 351.78C350.848 351.373 350.708 350.86 350.708 350.24C350.708 349.62 350.881 349.077 351.228 348.61C351.574 348.137 352.074 347.77 352.728 347.51C353.388 347.243 354.181 347.11 355.108 347.11C356.014 347.11 356.808 347.23 357.488 347.47C358.168 347.703 358.751 347.997 359.238 348.35L358.158 349.96C357.731 349.687 357.268 349.467 356.768 349.3C356.274 349.127 355.741 349.04 355.168 349.04C354.548 349.04 354.094 349.13 353.808 349.31C353.528 349.49 353.388 349.74 353.388 350.06C353.388 350.287 353.458 350.48 353.598 350.64C353.744 350.793 354.004 350.943 354.378 351.09C354.758 351.23 355.298 351.4 355.998 351.6C356.684 351.787 357.281 352.007 357.788 352.26C358.301 352.513 358.698 352.85 358.978 353.27C359.258 353.69 359.398 354.24 359.398 354.92C359.398 355.687 359.174 356.32 358.728 356.82C358.281 357.32 357.691 357.693 356.958 357.94C356.231 358.18 355.441 358.3 354.587 358.3C353.588 358.3 352.714 358.157 351.968 357.87C351.221 357.583 350.588 357.213 350.068 356.76L351.438 355.22C351.851 355.547 352.321 355.817 352.848 356.03C353.381 356.243 353.958 356.35 354.578 356.35Z" fill="#FF7A19"/>
<path d="M80.416 419.808V452.04H74.2V426.192L67.12 430.584L64.408 426.192L74.824 419.808H80.416ZM86.872 448.128V453H66.16V448.128H86.872ZM104.181 419.088C108.005 419.088 110.893 420.6 112.845 423.624C114.797 426.632 115.773 430.872 115.773 436.344C115.773 441.832 114.797 446.104 112.845 449.16C110.893 452.2 108.005 453.72 104.181 453.72C100.341 453.72 97.4453 452.2 95.4933 449.16C93.5573 446.104 92.5893 441.832 92.5893 436.344C92.5893 430.872 93.5573 426.632 95.4933 423.624C97.4453 420.6 100.341 419.088 104.181 419.088ZM104.181 423.792C102.373 423.792 101.005 424.76 100.077 426.696C99.1653 428.616 98.7093 431.832 98.7093 436.344C98.7093 438.84 98.7973 440.912 98.9733 442.56C99.1653 444.192 99.4773 445.48 99.9093 446.424C100.341 447.368 100.901 448.04 101.589 448.44C102.293 448.824 103.157 449.016 104.181 449.016C105.397 449.016 106.405 448.608 107.205 447.792C108.021 446.96 108.629 445.616 109.029 443.76C109.429 441.888 109.629 439.416 109.629 436.344C109.629 433.08 109.453 430.536 109.101 428.712C108.765 426.888 108.197 425.616 107.397 424.896C106.613 424.16 105.541 423.792 104.181 423.792ZM108.333 424.872L109.965 428.808L100.509 448.2L98.5653 444.984L108.333 424.872ZM145.562 427.584L136.131 438.912L146.475 453H139.011L129.219 439.08L138.579 427.584H145.562ZM128.859 416.76V453H122.523V417.432L128.859 416.76ZM164.432 427.704V437.448H174.008V442.44H164.432V452.184H158.984V442.44H149.48V437.448H158.984V427.704H164.432Z" fill="#FF7A19"/>
<path d="M68.34 470.32V482H65.61V470.32H61.57V468.17H72.5L72.22 470.32H68.34ZM79.0022 471.11C80.0555 471.11 80.9489 471.34 81.6822 471.8C82.4155 472.26 82.9722 472.91 83.3522 473.75C83.7389 474.583 83.9322 475.56 83.9322 476.68C83.9322 477.827 83.7389 478.82 83.3522 479.66C82.9655 480.5 82.4055 481.15 81.6722 481.61C80.9389 482.07 80.0455 482.3 78.9922 482.3C77.9455 482.3 77.0522 482.077 76.3122 481.63C75.5789 481.177 75.0189 480.533 74.6322 479.7C74.2455 478.86 74.0522 477.86 74.0522 476.7C74.0522 475.593 74.2455 474.62 74.6322 473.78C75.0189 472.94 75.5822 472.287 76.3222 471.82C77.0622 471.347 77.9555 471.11 79.0022 471.11ZM79.0022 473.1C78.2622 473.1 77.7089 473.39 77.3422 473.97C76.9822 474.55 76.8022 475.46 76.8022 476.7C76.8022 477.953 76.9822 478.87 77.3422 479.45C77.7022 480.023 78.2522 480.31 78.9922 480.31C79.7322 480.31 80.2822 480.023 80.6422 479.45C81.0022 478.87 81.1822 477.947 81.1822 476.68C81.1822 475.447 81.0022 474.543 80.6422 473.97C80.2822 473.39 79.7355 473.1 79.0022 473.1ZM95.7344 481.41C95.341 481.67 94.8644 481.883 94.3044 482.05C93.7444 482.217 93.1377 482.3 92.4844 482.3C91.191 482.3 90.2177 481.967 89.5644 481.3C88.911 480.627 88.5844 479.733 88.5844 478.62V473.28H86.2844V471.41H88.5844V469.08L91.2244 468.76V471.41H94.7244L94.4544 473.28H91.2244V478.61C91.2244 479.157 91.3577 479.557 91.6244 479.81C91.891 480.063 92.321 480.19 92.9144 480.19C93.2944 480.19 93.641 480.147 93.9544 480.06C94.2744 479.967 94.5644 479.85 94.8244 479.71L95.7344 481.41ZM107.037 479.21C107.037 479.617 107.097 479.913 107.217 480.1C107.337 480.28 107.53 480.417 107.797 480.51L107.227 482.28C106.66 482.22 106.177 482.08 105.777 481.86C105.383 481.633 105.08 481.297 104.867 480.85C104.467 481.337 103.96 481.7 103.347 481.94C102.74 482.18 102.103 482.3 101.437 482.3C100.357 482.3 99.4999 481.993 98.8666 481.38C98.2332 480.767 97.9166 479.97 97.9166 478.99C97.9166 477.863 98.3566 476.997 99.2366 476.39C100.123 475.777 101.377 475.47 102.997 475.47H104.477V474.9C104.477 474.273 104.283 473.82 103.897 473.54C103.51 473.253 102.953 473.11 102.227 473.11C101.887 473.11 101.46 473.157 100.947 473.25C100.44 473.337 99.9166 473.473 99.3766 473.66L98.7466 471.85C99.4199 471.597 100.097 471.41 100.777 471.29C101.463 471.17 102.087 471.11 102.647 471.11C104.133 471.11 105.237 471.427 105.957 472.06C106.677 472.687 107.037 473.577 107.037 474.73V479.21ZM102.297 480.39C102.697 480.39 103.1 480.277 103.507 480.05C103.92 479.823 104.243 479.507 104.477 479.1V477.04H103.437C102.457 477.04 101.747 477.197 101.307 477.51C100.873 477.823 100.657 478.267 100.657 478.84C100.657 479.333 100.797 479.717 101.077 479.99C101.357 480.257 101.763 480.39 102.297 480.39ZM115.619 467.18V478.92C115.619 479.38 115.752 479.707 116.019 479.9C116.292 480.093 116.659 480.19 117.119 480.19C117.405 480.19 117.682 480.16 117.949 480.1C118.215 480.033 118.469 479.953 118.709 479.86L119.359 481.66C119.025 481.827 118.619 481.973 118.139 482.1C117.665 482.233 117.115 482.3 116.489 482.3C115.335 482.3 114.462 481.97 113.869 481.31C113.275 480.65 112.979 479.76 112.979 478.64V469.05H109.809V467.18H115.619ZM141.503 472.6C141.503 472.027 141.393 471.563 141.173 471.21C140.96 470.85 140.646 470.587 140.233 470.42C139.82 470.253 139.323 470.17 138.743 470.17H137.313V475.18H138.823C139.37 475.18 139.84 475.097 140.233 474.93C140.633 474.757 140.943 474.48 141.163 474.1C141.39 473.72 141.503 473.22 141.503 472.6ZM144.343 472.58C144.343 473.653 144.113 474.533 143.653 475.22C143.2 475.9 142.563 476.403 141.743 476.73C140.923 477.05 139.976 477.21 138.903 477.21H137.313V482H134.573V468.17H138.643C140.436 468.17 141.833 468.533 142.833 469.26C143.84 469.987 144.343 471.093 144.343 472.58ZM156.005 472.26C156.005 472.927 155.872 473.51 155.605 474.01C155.345 474.51 154.989 474.93 154.535 475.27C154.089 475.61 153.585 475.873 153.025 476.06L156.815 482H153.675L150.405 476.49H149.145V482H146.415V468.17H150.485C152.305 468.17 153.679 468.507 154.605 469.18C155.539 469.853 156.005 470.88 156.005 472.26ZM153.165 472.26C153.165 471.513 152.949 470.977 152.515 470.65C152.082 470.317 151.429 470.15 150.555 470.15H149.145V474.55H150.645C151.452 474.55 152.072 474.37 152.505 474.01C152.945 473.65 153.165 473.067 153.165 472.26ZM162.578 480.35C163.198 480.35 163.694 480.243 164.068 480.03C164.448 479.81 164.638 479.503 164.638 479.11C164.638 478.85 164.574 478.63 164.448 478.45C164.328 478.27 164.088 478.103 163.728 477.95C163.368 477.79 162.828 477.613 162.108 477.42C161.428 477.247 160.831 477.033 160.318 476.78C159.811 476.52 159.414 476.187 159.128 475.78C158.848 475.373 158.708 474.86 158.708 474.24C158.708 473.62 158.881 473.077 159.228 472.61C159.574 472.137 160.074 471.77 160.728 471.51C161.388 471.243 162.181 471.11 163.108 471.11C164.014 471.11 164.808 471.23 165.488 471.47C166.168 471.703 166.751 471.997 167.238 472.35L166.158 473.96C165.731 473.687 165.268 473.467 164.768 473.3C164.274 473.127 163.741 473.04 163.168 473.04C162.548 473.04 162.094 473.13 161.808 473.31C161.528 473.49 161.388 473.74 161.388 474.06C161.388 474.287 161.458 474.48 161.598 474.64C161.744 474.793 162.004 474.943 162.378 475.09C162.758 475.23 163.298 475.4 163.998 475.6C164.684 475.787 165.281 476.007 165.788 476.26C166.301 476.513 166.698 476.85 166.978 477.27C167.258 477.69 167.398 478.24 167.398 478.92C167.398 479.687 167.174 480.32 166.728 480.82C166.281 481.32 165.691 481.693 164.958 481.94C164.231 482.18 163.441 482.3 162.587 482.3C161.588 482.3 160.714 482.157 159.968 481.87C159.221 481.583 158.588 481.213 158.068 480.76L159.438 479.22C159.851 479.547 160.321 479.817 160.848 480.03C161.381 480.243 161.958 480.35 162.578 480.35Z" fill="#FF7A19"/>
<path d="M272.416 419.808V452.04H266.2V426.192L259.12 430.584L256.408 426.192L266.824 419.808H272.416ZM278.872 448.128V453H258.16V448.128H278.872ZM296.181 419.088C300.005 419.088 302.893 420.6 304.845 423.624C306.797 426.632 307.773 430.872 307.773 436.344C307.773 441.832 306.797 446.104 304.845 449.16C302.893 452.2 300.005 453.72 296.181 453.72C292.341 453.72 289.445 452.2 287.493 449.16C285.557 446.104 284.589 441.832 284.589 436.344C284.589 430.872 285.557 426.632 287.493 423.624C289.445 420.6 292.341 419.088 296.181 419.088ZM296.181 423.792C294.373 423.792 293.005 424.76 292.077 426.696C291.165 428.616 290.709 431.832 290.709 436.344C290.709 438.84 290.797 440.912 290.973 442.56C291.165 444.192 291.477 445.48 291.909 446.424C292.341 447.368 292.901 448.04 293.589 448.44C294.293 448.824 295.157 449.016 296.181 449.016C297.397 449.016 298.405 448.608 299.205 447.792C300.021 446.96 300.629 445.616 301.029 443.76C301.429 441.888 301.629 439.416 301.629 436.344C301.629 433.08 301.453 430.536 301.101 428.712C300.765 426.888 300.197 425.616 299.397 424.896C298.613 424.16 297.541 423.792 296.181 423.792ZM300.333 424.872L301.965 428.808L292.509 448.2L290.565 444.984L300.333 424.872ZM324.963 419.088C328.787 419.088 331.675 420.6 333.627 423.624C335.579 426.632 336.555 430.872 336.555 436.344C336.555 441.832 335.579 446.104 333.627 449.16C331.675 452.2 328.787 453.72 324.963 453.72C321.123 453.72 318.227 452.2 316.275 449.16C314.339 446.104 313.371 441.832 313.371 436.344C313.371 430.872 314.339 426.632 316.275 423.624C318.227 420.6 321.123 419.088 324.963 419.088ZM324.963 423.792C323.155 423.792 321.787 424.76 320.859 426.696C319.947 428.616 319.491 431.832 319.491 436.344C319.491 438.84 319.579 440.912 319.755 442.56C319.947 444.192 320.259 445.48 320.691 446.424C321.123 447.368 321.683 448.04 322.371 448.44C323.075 448.824 323.939 449.016 324.963 449.016C326.179 449.016 327.187 448.608 327.987 447.792C328.803 446.96 329.411 445.616 329.811 443.76C330.211 441.888 330.411 439.416 330.411 436.344C330.411 433.08 330.235 430.536 329.883 428.712C329.547 426.888 328.979 425.616 328.179 424.896C327.395 424.16 326.323 423.792 324.963 423.792ZM329.115 424.872L330.747 428.808L321.291 448.2L319.347 444.984L329.115 424.872ZM356.432 425.784V435.528H366.008V440.52H356.432V450.264H350.984V440.52H341.48V435.528H350.984V425.784H356.432Z" fill="#FF7A19"/>
<path d="M260.34 470.32V482H257.61V470.32H253.57V468.17H264.5L264.22 470.32H260.34ZM271.002 471.11C272.056 471.11 272.949 471.34 273.682 471.8C274.416 472.26 274.972 472.91 275.352 473.75C275.739 474.583 275.932 475.56 275.932 476.68C275.932 477.827 275.739 478.82 275.352 479.66C274.966 480.5 274.406 481.15 273.672 481.61C272.939 482.07 272.046 482.3 270.992 482.3C269.946 482.3 269.052 482.077 268.312 481.63C267.579 481.177 267.019 480.533 266.632 479.7C266.246 478.86 266.052 477.86 266.052 476.7C266.052 475.593 266.246 474.62 266.632 473.78C267.019 472.94 267.582 472.287 268.322 471.82C269.062 471.347 269.956 471.11 271.002 471.11ZM271.002 473.1C270.262 473.1 269.709 473.39 269.342 473.97C268.982 474.55 268.802 475.46 268.802 476.7C268.802 477.953 268.982 478.87 269.342 479.45C269.702 480.023 270.252 480.31 270.992 480.31C271.732 480.31 272.282 480.023 272.642 479.45C273.002 478.87 273.182 477.947 273.182 476.68C273.182 475.447 273.002 474.543 272.642 473.97C272.282 473.39 271.736 473.1 271.002 473.1ZM287.734 481.41C287.341 481.67 286.864 481.883 286.304 482.05C285.744 482.217 285.138 482.3 284.484 482.3C283.191 482.3 282.218 481.967 281.564 481.3C280.911 480.627 280.584 479.733 280.584 478.62V473.28H278.284V471.41H280.584V469.08L283.224 468.76V471.41H286.724L286.454 473.28H283.224V478.61C283.224 479.157 283.358 479.557 283.624 479.81C283.891 480.063 284.321 480.19 284.914 480.19C285.294 480.19 285.641 480.147 285.954 480.06C286.274 479.967 286.564 479.85 286.824 479.71L287.734 481.41ZM299.037 479.21C299.037 479.617 299.097 479.913 299.217 480.1C299.337 480.28 299.53 480.417 299.797 480.51L299.227 482.28C298.66 482.22 298.177 482.08 297.777 481.86C297.383 481.633 297.08 481.297 296.867 480.85C296.467 481.337 295.96 481.7 295.347 481.94C294.74 482.18 294.103 482.3 293.437 482.3C292.357 482.3 291.5 481.993 290.867 481.38C290.233 480.767 289.917 479.97 289.917 478.99C289.917 477.863 290.357 476.997 291.237 476.39C292.123 475.777 293.377 475.47 294.997 475.47H296.477V474.9C296.477 474.273 296.283 473.82 295.897 473.54C295.51 473.253 294.953 473.11 294.227 473.11C293.887 473.11 293.46 473.157 292.947 473.25C292.44 473.337 291.917 473.473 291.377 473.66L290.747 471.85C291.42 471.597 292.097 471.41 292.777 471.29C293.463 471.17 294.087 471.11 294.647 471.11C296.133 471.11 297.237 471.427 297.957 472.06C298.677 472.687 299.037 473.577 299.037 474.73V479.21ZM294.297 480.39C294.697 480.39 295.1 480.277 295.507 480.05C295.92 479.823 296.243 479.507 296.477 479.1V477.04H295.437C294.457 477.04 293.747 477.197 293.307 477.51C292.873 477.823 292.657 478.267 292.657 478.84C292.657 479.333 292.797 479.717 293.077 479.99C293.357 480.257 293.763 480.39 294.297 480.39ZM307.619 467.18V478.92C307.619 479.38 307.752 479.707 308.019 479.9C308.292 480.093 308.659 480.19 309.119 480.19C309.405 480.19 309.682 480.16 309.949 480.1C310.215 480.033 310.469 479.953 310.709 479.86L311.359 481.66C311.025 481.827 310.619 481.973 310.139 482.1C309.665 482.233 309.115 482.3 308.489 482.3C307.335 482.3 306.462 481.97 305.869 481.31C305.275 480.65 304.979 479.76 304.979 478.64V469.05H301.809V467.18H307.619ZM333.503 472.6C333.503 472.027 333.393 471.563 333.173 471.21C332.96 470.85 332.646 470.587 332.233 470.42C331.82 470.253 331.323 470.17 330.743 470.17H329.313V475.18H330.823C331.37 475.18 331.84 475.097 332.233 474.93C332.633 474.757 332.943 474.48 333.163 474.1C333.39 473.72 333.503 473.22 333.503 472.6ZM336.343 472.58C336.343 473.653 336.113 474.533 335.653 475.22C335.2 475.9 334.563 476.403 333.743 476.73C332.923 477.05 331.976 477.21 330.903 477.21H329.313V482H326.573V468.17H330.643C332.436 468.17 333.833 468.533 334.833 469.26C335.84 469.987 336.343 471.093 336.343 472.58ZM338.655 482V480.17H340.145V473.23H338.655V471.41H342.155L342.645 473.84C343.032 472.94 343.519 472.263 344.105 471.81C344.692 471.35 345.429 471.12 346.315 471.12C346.655 471.12 346.955 471.147 347.215 471.2C347.482 471.253 347.735 471.323 347.975 471.41L347.185 473.63C346.979 473.577 346.782 473.537 346.595 473.51C346.409 473.477 346.199 473.46 345.965 473.46C345.232 473.46 344.592 473.747 344.045 474.32C343.505 474.887 343.085 475.657 342.785 476.63V480.17H344.895V482H338.655ZM345.745 475.54V472.73L346.105 471.41H347.975L347.505 475.54H345.745ZM354.948 471.11C356.001 471.11 356.894 471.34 357.628 471.8C358.361 472.26 358.918 472.91 359.298 473.75C359.684 474.583 359.878 475.56 359.878 476.68C359.878 477.827 359.684 478.82 359.298 479.66C358.911 480.5 358.351 481.15 357.618 481.61C356.884 482.07 355.991 482.3 354.938 482.3C353.891 482.3 352.998 482.077 352.258 481.63C351.524 481.177 350.964 480.533 350.578 479.7C350.191 478.86 349.998 477.86 349.998 476.7C349.998 475.593 350.191 474.62 350.578 473.78C350.964 472.94 351.528 472.287 352.268 471.82C353.008 471.347 353.901 471.11 354.948 471.11ZM354.948 473.1C354.208 473.1 353.654 473.39 353.288 473.97C352.928 474.55 352.748 475.46 352.748 476.7C352.748 477.953 352.928 478.87 353.288 479.45C353.648 480.023 354.198 480.31 354.938 480.31C355.678 480.31 356.228 480.023 356.588 479.45C356.948 478.87 357.128 477.947 357.128 476.68C357.128 475.447 356.948 474.543 356.588 473.97C356.228 473.39 355.681 473.1 354.948 473.1ZM370.19 471.41V479.41C370.19 480.817 369.91 481.98 369.35 482.9C368.796 483.82 367.98 484.553 366.9 485.1C365.82 485.647 364.496 486.067 362.93 486.36L362.5 484.34C363.566 484.12 364.473 483.83 365.22 483.47C365.973 483.11 366.55 482.62 366.95 482C367.35 481.38 367.55 480.573 367.55 479.58V473.28H363.53V471.41H370.19ZM368.31 466.07C368.79 466.07 369.183 466.22 369.49 466.52C369.796 466.82 369.95 467.193 369.95 467.64C369.95 468.087 369.796 468.463 369.49 468.77C369.183 469.07 368.79 469.22 368.31 469.22C367.823 469.22 367.426 469.07 367.12 468.77C366.813 468.463 366.66 468.087 366.66 467.64C366.66 467.193 366.813 466.82 367.12 466.52C367.426 466.22 367.823 466.07 368.31 466.07ZM376.782 477.51C376.835 478.17 376.985 478.707 377.232 479.12C377.485 479.533 377.809 479.837 378.202 480.03C378.595 480.223 379.032 480.32 379.512 480.32C380.019 480.32 380.495 480.24 380.942 480.08C381.389 479.92 381.829 479.697 382.262 479.41L383.362 480.92C382.869 481.333 382.279 481.667 381.592 481.92C380.912 482.173 380.162 482.3 379.342 482.3C378.195 482.3 377.229 482.063 376.442 481.59C375.662 481.117 375.072 480.46 374.672 479.62C374.272 478.78 374.072 477.813 374.072 476.72C374.072 475.667 374.269 474.717 374.662 473.87C375.055 473.023 375.622 472.353 376.362 471.86C377.102 471.36 377.995 471.11 379.042 471.11C380.015 471.11 380.855 471.323 381.562 471.75C382.269 472.177 382.815 472.79 383.202 473.59C383.589 474.383 383.782 475.34 383.782 476.46C383.782 476.64 383.775 476.823 383.762 477.01C383.755 477.197 383.745 477.363 383.732 477.51H376.782ZM379.052 472.97C378.412 472.97 377.885 473.2 377.472 473.66C377.065 474.113 376.825 474.833 376.752 475.82H381.212C381.199 474.927 381.012 474.23 380.652 473.73C380.299 473.223 379.765 472.97 379.052 472.97ZM391.854 480.18C392.321 480.18 392.757 480.093 393.164 479.92C393.577 479.747 393.974 479.527 394.354 479.26L395.554 480.95C395.087 481.343 394.524 481.667 393.864 481.92C393.204 482.173 392.497 482.3 391.744 482.3C390.637 482.3 389.687 482.07 388.894 481.61C388.107 481.143 387.501 480.497 387.074 479.67C386.654 478.837 386.444 477.87 386.444 476.77C386.444 475.683 386.657 474.713 387.084 473.86C387.517 473 388.131 472.327 388.924 471.84C389.724 471.353 390.677 471.11 391.784 471.11C392.544 471.11 393.231 471.22 393.844 471.44C394.464 471.653 395.031 471.973 395.544 472.4L394.374 474.02C393.981 473.747 393.574 473.54 393.154 473.4C392.741 473.253 392.311 473.18 391.864 473.18C391.084 473.18 390.447 473.463 389.954 474.03C389.467 474.59 389.224 475.503 389.224 476.77C389.224 477.603 389.337 478.27 389.564 478.77C389.797 479.27 390.111 479.63 390.504 479.85C390.904 480.07 391.354 480.18 391.854 480.18ZM407.656 481.41C407.263 481.67 406.786 481.883 406.226 482.05C405.666 482.217 405.06 482.3 404.406 482.3C403.113 482.3 402.14 481.967 401.486 481.3C400.833 480.627 400.506 479.733 400.506 478.62V473.28H398.206V471.41H400.506V469.08L403.146 468.76V471.41H406.646L406.376 473.28H403.146V478.61C403.146 479.157 403.28 479.557 403.546 479.81C403.813 480.063 404.243 480.19 404.836 480.19C405.216 480.19 405.563 480.147 405.876 480.06C406.196 479.967 406.486 479.85 406.746 479.71L407.656 481.41ZM414.538 480.35C415.158 480.35 415.655 480.243 416.028 480.03C416.408 479.81 416.598 479.503 416.598 479.11C416.598 478.85 416.535 478.63 416.408 478.45C416.288 478.27 416.048 478.103 415.688 477.95C415.328 477.79 414.788 477.613 414.068 477.42C413.388 477.247 412.792 477.033 412.278 476.78C411.772 476.52 411.375 476.187 411.088 475.78C410.808 475.373 410.668 474.86 410.668 474.24C410.668 473.62 410.842 473.077 411.188 472.61C411.535 472.137 412.035 471.77 412.688 471.51C413.348 471.243 414.142 471.11 415.068 471.11C415.975 471.11 416.768 471.23 417.448 471.47C418.128 471.703 418.712 471.997 419.198 472.35L418.118 473.96C417.692 473.687 417.228 473.467 416.728 473.3C416.235 473.127 415.702 473.04 415.128 473.04C414.508 473.04 414.055 473.13 413.768 473.31C413.488 473.49 413.348 473.74 413.348 474.06C413.348 474.287 413.418 474.48 413.558 474.64C413.705 474.793 413.965 474.943 414.338 475.09C414.718 475.23 415.258 475.4 415.958 475.6C416.645 475.787 417.242 476.007 417.748 476.26C418.262 476.513 418.658 476.85 418.938 477.27C419.218 477.69 419.358 478.24 419.358 478.92C419.358 479.687 419.135 480.32 418.688 480.82C418.242 481.32 417.652 481.693 416.918 481.94C416.192 482.18 415.402 482.3 414.548 482.3C413.548 482.3 412.675 482.157 411.928 481.87C411.182 481.583 410.548 481.213 410.028 480.76L411.398 479.22C411.812 479.547 412.282 479.817 412.808 480.03C413.342 480.243 413.918 480.35 414.538 480.35Z" fill="#FF7A19"/>
</g>
<defs>
<filter id="filter0_dd_808_549" x="0" y="0" width="490" height="570" filterUnits="userSpaceOnUse" color-interpolation-filters="sRGB">
<feFlood flood-opacity="0" result="BackgroundImageFix"/>
<feColorMatrix in="SourceAlpha" type="matrix" values="0 0 0 0 0 0 0 0 0 0 0 0 0 0 0 0 0 0 127 0" result="hardAlpha"/>
<feOffset dy="10"/>
<feGaussianBlur stdDeviation="5"/>
<feColorMatrix type="matrix" values="0 0 0 0 0 0 0 0 0 0 0 0 0 0 0 0 0 0 0.04 0"/>
<feBlend mode="normal" in2="BackgroundImageFix" result="effect1_dropShadow_808_549"/>
<feColorMatrix in="SourceAlpha" type="matrix" values="0 0 0 0 0 0 0 0 0 0 0 0 0 0 0 0 0 0 127 0" result="hardAlpha"/>
<feOffset dy="20"/>
<feGaussianBlur stdDeviation="12.5"/>
<feColorMatrix type="matrix" values="0 0 0 0 0 0 0 0 0 0 0 0 0 0 0 0 0 0 0.1 0"/>
<feBlend mode="normal" in2="effect1_dropShadow_808_549" result="effect2_dropShadow_808_549"/>
<feBlend mode="normal" in="SourceGraphic" in2="effect2_dropShadow_808_549" result="shape"/>
</filter>
</defs>
</svg>
