<svg width="1178" height="631" viewBox="0 0 1178 631" fill="none" xmlns="http://www.w3.org/2000/svg">
<g filter="url(#filter0_d_813_226)">
<path fill-rule="evenodd" clip-rule="evenodd" d="M21.2665 26.3782H1018.27V26.4233C1090.67 32.0293 1147.67 92.5552 1147.67 166.395C1147.67 240.235 1090.67 300.761 1018.27 306.367L1018.27 306.002L150.267 306L149.267 306V306.143C76.1375 316.887 19.9999 379.887 19.9999 456C19.9999 532.459 76.65 595.687 150.267 606L150.267 606.002H1157.27V596.002H150.267L150.267 595.894C82.1932 585.662 29.9999 526.926 29.9999 456C29.9999 385.074 82.1932 326.338 150.267 316.106V316L1018.27 316.002L1018.27 316.395C1096.2 310.767 1157.67 245.76 1157.67 166.395C1157.67 87.3697 1096.72 22.58 1019.27 16.4705V16.3782H21.2665V26.3782Z" fill="url(#paint0_linear_813_226)"/>
</g>
<defs>
<filter id="filter0_d_813_226" x="0" y="0.378174" width="1177.67" height="629.624" filterUnits="userSpaceOnUse" color-interpolation-filters="sRGB">
<feFlood flood-opacity="0" result="BackgroundImageFix"/>
<feColorMatrix in="SourceAlpha" type="matrix" values="0 0 0 0 0 0 0 0 0 0 0 0 0 0 0 0 0 0 127 0" result="hardAlpha"/>
<feOffset dy="4"/>
<feGaussianBlur stdDeviation="10"/>
<feComposite in2="hardAlpha" operator="out"/>
<feColorMatrix type="matrix" values="0 0 0 0 0 0 0 0 0 0 0 0 0 0 0 0 0 0 0.16 0"/>
<feBlend mode="normal" in2="BackgroundImageFix" result="effect1_dropShadow_813_226"/>
<feBlend mode="normal" in="SourceGraphic" in2="effect1_dropShadow_813_226" result="shape"/>
</filter>
<linearGradient id="paint0_linear_813_226" x1="588.836" y1="16.3782" x2="588.836" y2="606.002" gradientUnits="userSpaceOnUse">
<stop stop-color="#FF8500"/>
<stop offset="1" stop-color="#FF6701"/>
</linearGradient>
</defs>
</svg>
