<svg width="560" height="490" viewBox="0 0 560 490" fill="none" xmlns="http://www.w3.org/2000/svg">
<g filter="url(#filter0_ii_1101_624)">
<path fill-rule="evenodd" clip-rule="evenodd" d="M367.759 150H192.236L279.998 0L367.759 150Z" fill="url(#paint0_linear_1101_624)"/>
</g>
<path d="M248.525 105C248.378 105 248.265 104.96 248.185 104.88C248.105 104.787 248.065 104.673 248.065 104.54V91.48C248.065 91.3333 248.105 91.22 248.185 91.14C248.265 91.0467 248.378 91 248.525 91H253.605C254.591 91 255.445 91.16 256.165 91.48C256.898 91.8 257.465 92.28 257.865 92.92C258.265 93.5467 258.465 94.3333 258.465 95.28C258.465 96.2267 258.265 97.0133 257.865 97.64C257.465 98.2667 256.898 98.74 256.165 99.06C255.445 99.38 254.591 99.54 253.605 99.54H250.065V104.54C250.065 104.673 250.018 104.787 249.925 104.88C249.845 104.96 249.731 105 249.585 105H248.525ZM250.045 97.86H253.505C254.491 97.86 255.231 97.64 255.725 97.2C256.218 96.76 256.465 96.12 256.465 95.28C256.465 94.4533 256.225 93.8133 255.745 93.36C255.265 92.9067 254.518 92.68 253.505 92.68H250.045V97.86ZM261.097 105C260.963 105 260.85 104.96 260.757 104.88C260.677 104.787 260.637 104.673 260.637 104.54V95.08C260.637 94.9467 260.677 94.8333 260.757 94.74C260.85 94.6467 260.963 94.6 261.097 94.6H262.017C262.15 94.6 262.263 94.6467 262.357 94.74C262.45 94.8333 262.497 94.9467 262.497 95.08V95.96C262.763 95.5067 263.13 95.1667 263.597 94.94C264.063 94.7133 264.63 94.6 265.297 94.6H266.077C266.21 94.6 266.317 94.6467 266.397 94.74C266.49 94.82 266.537 94.9267 266.537 95.06V95.88C266.537 96.0133 266.49 96.12 266.397 96.2C266.317 96.28 266.21 96.32 266.077 96.32H264.877C264.157 96.32 263.59 96.5333 263.177 96.96C262.763 97.3733 262.557 97.94 262.557 98.66V104.54C262.557 104.673 262.51 104.787 262.417 104.88C262.323 104.96 262.21 105 262.077 105H261.097ZM272.299 105.2C271.286 105.2 270.439 105.007 269.759 104.62C269.079 104.233 268.559 103.7 268.199 103.02C267.839 102.327 267.639 101.54 267.599 100.66C267.586 100.433 267.579 100.147 267.579 99.8C267.579 99.44 267.586 99.1533 267.599 98.94C267.639 98.0467 267.839 97.26 268.199 96.58C268.572 95.9 269.099 95.3667 269.779 94.98C270.459 94.5933 271.299 94.4 272.299 94.4C273.299 94.4 274.139 94.5933 274.819 94.98C275.499 95.3667 276.019 95.9 276.379 96.58C276.752 97.26 276.959 98.0467 276.999 98.94C277.012 99.1533 277.019 99.44 277.019 99.8C277.019 100.147 277.012 100.433 276.999 100.66C276.959 101.54 276.759 102.327 276.399 103.02C276.039 103.7 275.519 104.233 274.839 104.62C274.159 105.007 273.312 105.2 272.299 105.2ZM272.299 103.66C273.126 103.66 273.786 103.4 274.279 102.88C274.772 102.347 275.039 101.573 275.079 100.56C275.092 100.36 275.099 100.107 275.099 99.8C275.099 99.4933 275.092 99.24 275.079 99.04C275.039 98.0267 274.772 97.26 274.279 96.74C273.786 96.2067 273.126 95.94 272.299 95.94C271.472 95.94 270.806 96.2067 270.299 96.74C269.806 97.26 269.546 98.0267 269.519 99.04C269.506 99.24 269.499 99.4933 269.499 99.8C269.499 100.107 269.506 100.36 269.519 100.56C269.546 101.573 269.806 102.347 270.299 102.88C270.806 103.4 271.472 103.66 272.299 103.66ZM277.823 108.8C277.69 108.8 277.583 108.753 277.503 108.66C277.41 108.58 277.363 108.473 277.363 108.34V107.66C277.363 107.527 277.41 107.413 277.503 107.32C277.583 107.24 277.69 107.2 277.823 107.2H278.103C278.583 107.2 278.937 107.107 279.163 106.92C279.39 106.747 279.537 106.507 279.603 106.2C279.683 105.907 279.723 105.58 279.723 105.22V95.06C279.723 94.9267 279.763 94.82 279.843 94.74C279.937 94.6467 280.05 94.6 280.183 94.6H281.163C281.297 94.6 281.403 94.6467 281.483 94.74C281.577 94.82 281.623 94.9267 281.623 95.06V105.24C281.623 105.947 281.51 106.567 281.283 107.1C281.07 107.633 280.717 108.047 280.223 108.34C279.73 108.647 279.057 108.8 278.203 108.8H277.823ZM280.023 92.66C279.89 92.66 279.777 92.62 279.683 92.54C279.603 92.4467 279.563 92.3333 279.563 92.2V91.12C279.563 90.9867 279.603 90.8733 279.683 90.78C279.777 90.6867 279.89 90.64 280.023 90.64H281.303C281.437 90.64 281.55 90.6867 281.643 90.78C281.737 90.8733 281.783 90.9867 281.783 91.12V92.2C281.783 92.3333 281.737 92.4467 281.643 92.54C281.55 92.62 281.437 92.66 281.303 92.66H280.023ZM288.8 105.2C287.414 105.2 286.314 104.78 285.5 103.94C284.687 103.087 284.24 101.927 284.16 100.46C284.147 100.287 284.14 100.067 284.14 99.8C284.14 99.52 284.147 99.2933 284.16 99.12C284.214 98.1733 284.434 97.3467 284.82 96.64C285.207 95.92 285.734 95.3667 286.4 94.98C287.08 94.5933 287.874 94.4 288.78 94.4C289.794 94.4 290.64 94.6133 291.32 95.04C292.014 95.4667 292.54 96.0733 292.9 96.86C293.26 97.6467 293.44 98.5667 293.44 99.62V99.96C293.44 100.107 293.394 100.22 293.3 100.3C293.22 100.38 293.114 100.42 292.98 100.42H286.06C286.06 100.433 286.06 100.46 286.06 100.5C286.06 100.54 286.06 100.573 286.06 100.6C286.087 101.147 286.207 101.66 286.42 102.14C286.634 102.607 286.94 102.987 287.34 103.28C287.754 103.573 288.234 103.72 288.78 103.72C289.26 103.72 289.66 103.647 289.98 103.5C290.3 103.353 290.56 103.193 290.76 103.02C290.96 102.833 291.094 102.687 291.16 102.58C291.28 102.42 291.374 102.327 291.44 102.3C291.507 102.26 291.614 102.24 291.76 102.24H292.74C292.86 102.24 292.96 102.28 293.04 102.36C293.134 102.427 293.174 102.527 293.16 102.66C293.147 102.86 293.04 103.107 292.84 103.4C292.64 103.68 292.354 103.96 291.98 104.24C291.62 104.52 291.167 104.753 290.62 104.94C290.087 105.113 289.48 105.2 288.8 105.2ZM286.06 99.04H291.54V98.98C291.54 98.38 291.427 97.8467 291.2 97.38C290.987 96.9133 290.674 96.5467 290.26 96.28C289.847 96 289.354 95.86 288.78 95.86C288.207 95.86 287.714 96 287.3 96.28C286.9 96.5467 286.594 96.9133 286.38 97.38C286.167 97.8467 286.06 98.38 286.06 98.98V99.04ZM300.032 105.2C299.085 105.2 298.265 105.02 297.572 104.66C296.892 104.287 296.365 103.76 295.992 103.08C295.619 102.387 295.419 101.56 295.392 100.6C295.379 100.4 295.372 100.133 295.372 99.8C295.372 99.4667 295.379 99.2 295.392 99C295.419 98.04 295.619 97.22 295.992 96.54C296.365 95.8467 296.892 95.32 297.572 94.96C298.265 94.5867 299.085 94.4 300.032 94.4C300.805 94.4 301.465 94.5067 302.012 94.72C302.572 94.9333 303.032 95.2067 303.392 95.54C303.752 95.8733 304.019 96.2333 304.192 96.62C304.379 97.0067 304.479 97.3733 304.492 97.72C304.505 97.8533 304.465 97.96 304.372 98.04C304.279 98.12 304.165 98.16 304.032 98.16H303.072C302.939 98.16 302.839 98.1333 302.772 98.08C302.705 98.0133 302.639 97.9067 302.572 97.76C302.332 97.1067 302.005 96.6467 301.592 96.38C301.179 96.1133 300.665 95.98 300.052 95.98C299.252 95.98 298.599 96.2267 298.092 96.72C297.599 97.2133 297.332 98.0067 297.292 99.1C297.279 99.58 297.279 100.047 297.292 100.5C297.332 101.607 297.599 102.407 298.092 102.9C298.599 103.38 299.252 103.62 300.052 103.62C300.665 103.62 301.179 103.487 301.592 103.22C302.005 102.953 302.332 102.493 302.572 101.84C302.639 101.693 302.705 101.587 302.772 101.52C302.839 101.453 302.939 101.42 303.072 101.42H304.032C304.165 101.42 304.279 101.467 304.372 101.56C304.465 101.64 304.505 101.747 304.492 101.88C304.479 102.16 304.419 102.447 304.312 102.74C304.205 103.033 304.032 103.333 303.792 103.64C303.565 103.933 303.279 104.2 302.932 104.44C302.585 104.667 302.172 104.853 301.692 105C301.212 105.133 300.659 105.2 300.032 105.2ZM310.927 105C310.18 105 309.574 104.86 309.107 104.58C308.64 104.287 308.3 103.88 308.087 103.36C307.874 102.827 307.767 102.2 307.767 101.48V96.2H306.207C306.074 96.2 305.96 96.16 305.867 96.08C305.787 95.9867 305.747 95.8733 305.747 95.74V95.06C305.747 94.9267 305.787 94.82 305.867 94.74C305.96 94.6467 306.074 94.6 306.207 94.6H307.767V91.26C307.767 91.1267 307.807 91.02 307.887 90.94C307.98 90.8467 308.094 90.8 308.227 90.8H309.167C309.3 90.8 309.407 90.8467 309.487 90.94C309.58 91.02 309.627 91.1267 309.627 91.26V94.6H312.107C312.254 94.6 312.367 94.6467 312.447 94.74C312.527 94.82 312.567 94.9267 312.567 95.06V95.74C312.567 95.8733 312.527 95.9867 312.447 96.08C312.367 96.16 312.254 96.2 312.107 96.2H309.627V101.34C309.627 101.967 309.734 102.46 309.947 102.82C310.16 103.18 310.54 103.36 311.087 103.36H312.307C312.44 103.36 312.547 103.407 312.627 103.5C312.72 103.58 312.767 103.687 312.767 103.82V104.54C312.767 104.673 312.72 104.787 312.627 104.88C312.547 104.96 312.44 105 312.307 105H310.927ZM250.513 133C250.407 133 250.313 132.96 250.233 132.88C250.153 132.8 250.113 132.707 250.113 132.6C250.113 132.533 250.12 132.46 250.133 132.38L255.093 119.44C255.147 119.307 255.22 119.2 255.313 119.12C255.407 119.04 255.547 119 255.733 119H257.093C257.28 119 257.42 119.04 257.513 119.12C257.607 119.2 257.68 119.307 257.733 119.44L262.673 132.38C262.7 132.46 262.713 132.533 262.713 132.6C262.713 132.707 262.673 132.8 262.593 132.88C262.513 132.96 262.42 133 262.313 133H261.293C261.133 133 261.013 132.96 260.933 132.88C260.867 132.8 260.82 132.727 260.793 132.66L259.693 129.82H253.133L252.033 132.66C252.02 132.727 251.973 132.8 251.893 132.88C251.813 132.96 251.693 133 251.533 133H250.513ZM253.713 128.1H259.113L256.413 121L253.713 128.1ZM268.274 133.2C267.541 133.2 266.908 133.073 266.374 132.82C265.841 132.553 265.401 132.2 265.054 131.76C264.721 131.307 264.468 130.793 264.294 130.22C264.134 129.647 264.041 129.04 264.014 128.4C264.001 128.187 263.994 127.987 263.994 127.8C263.994 127.613 264.001 127.413 264.014 127.2C264.041 126.573 264.134 125.973 264.294 125.4C264.468 124.827 264.721 124.313 265.054 123.86C265.401 123.407 265.841 123.053 266.374 122.8C266.908 122.533 267.541 122.4 268.274 122.4C269.061 122.4 269.714 122.54 270.234 122.82C270.754 123.1 271.181 123.447 271.514 123.86V119.26C271.514 119.127 271.554 119.02 271.634 118.94C271.728 118.847 271.841 118.8 271.974 118.8H272.934C273.068 118.8 273.174 118.847 273.254 118.94C273.348 119.02 273.394 119.127 273.394 119.26V132.54C273.394 132.673 273.348 132.787 273.254 132.88C273.174 132.96 273.068 133 272.934 133H272.034C271.888 133 271.774 132.96 271.694 132.88C271.614 132.787 271.574 132.673 271.574 132.54V131.7C271.241 132.127 270.808 132.487 270.274 132.78C269.741 133.06 269.074 133.2 268.274 133.2ZM268.694 131.58C269.361 131.58 269.894 131.427 270.294 131.12C270.694 130.813 270.994 130.427 271.194 129.96C271.394 129.48 271.501 128.993 271.514 128.5C271.528 128.287 271.534 128.033 271.534 127.74C271.534 127.433 271.528 127.173 271.514 126.96C271.501 126.493 271.388 126.033 271.174 125.58C270.974 125.127 270.668 124.753 270.254 124.46C269.854 124.167 269.334 124.02 268.694 124.02C268.014 124.02 267.474 124.173 267.074 124.48C266.674 124.773 266.388 125.167 266.214 125.66C266.041 126.14 265.941 126.66 265.914 127.22C265.901 127.607 265.901 127.993 265.914 128.38C265.941 128.94 266.041 129.467 266.214 129.96C266.388 130.44 266.674 130.833 267.074 131.14C267.474 131.433 268.014 131.58 268.694 131.58ZM276.829 133C276.696 133 276.582 132.96 276.489 132.88C276.409 132.787 276.369 132.673 276.369 132.54V123.06C276.369 122.927 276.409 122.82 276.489 122.74C276.582 122.647 276.696 122.6 276.829 122.6H277.729C277.862 122.6 277.969 122.647 278.049 122.74C278.142 122.82 278.189 122.927 278.189 123.06V123.76C278.496 123.347 278.882 123.02 279.349 122.78C279.816 122.527 280.376 122.4 281.029 122.4C282.536 122.387 283.602 123 284.229 124.24C284.536 123.68 284.982 123.233 285.569 122.9C286.156 122.567 286.822 122.4 287.569 122.4C288.262 122.4 288.889 122.56 289.449 122.88C290.022 123.2 290.469 123.687 290.789 124.34C291.122 124.98 291.289 125.787 291.289 126.76V132.54C291.289 132.673 291.242 132.787 291.149 132.88C291.069 132.96 290.962 133 290.829 133H289.889C289.756 133 289.642 132.96 289.549 132.88C289.469 132.787 289.429 132.673 289.429 132.54V126.94C289.429 126.193 289.322 125.607 289.109 125.18C288.896 124.753 288.609 124.453 288.249 124.28C287.889 124.107 287.496 124.02 287.069 124.02C286.722 124.02 286.369 124.107 286.009 124.28C285.649 124.453 285.349 124.753 285.109 125.18C284.882 125.607 284.769 126.193 284.769 126.94V132.54C284.769 132.673 284.722 132.787 284.629 132.88C284.549 132.96 284.442 133 284.309 133H283.369C283.236 133 283.122 132.96 283.029 132.88C282.949 132.787 282.909 132.673 282.909 132.54V126.94C282.909 126.193 282.796 125.607 282.569 125.18C282.342 124.753 282.049 124.453 281.689 124.28C281.329 124.107 280.949 124.02 280.549 124.02C280.202 124.02 279.849 124.107 279.489 124.28C279.129 124.453 278.829 124.753 278.589 125.18C278.362 125.607 278.249 126.187 278.249 126.92V132.54C278.249 132.673 278.202 132.787 278.109 132.88C278.029 132.96 277.922 133 277.789 133H276.829ZM294.602 133C294.469 133 294.356 132.96 294.262 132.88C294.182 132.787 294.142 132.673 294.142 132.54V123.06C294.142 122.927 294.182 122.82 294.262 122.74C294.356 122.647 294.469 122.6 294.602 122.6H295.562C295.696 122.6 295.802 122.647 295.882 122.74C295.976 122.82 296.022 122.927 296.022 123.06V132.54C296.022 132.673 295.976 132.787 295.882 132.88C295.802 132.96 295.696 133 295.562 133H294.602ZM294.442 120.66C294.309 120.66 294.196 120.62 294.102 120.54C294.022 120.447 293.982 120.333 293.982 120.2V119.12C293.982 118.987 294.022 118.873 294.102 118.78C294.196 118.687 294.309 118.64 294.442 118.64H295.702C295.836 118.64 295.949 118.687 296.042 118.78C296.136 118.873 296.182 118.987 296.182 119.12V120.2C296.182 120.333 296.136 120.447 296.042 120.54C295.949 120.62 295.836 120.66 295.702 120.66H294.442ZM299.622 133C299.489 133 299.375 132.96 299.282 132.88C299.202 132.787 299.162 132.673 299.162 132.54V123.06C299.162 122.927 299.202 122.82 299.282 122.74C299.375 122.647 299.489 122.6 299.622 122.6H300.562C300.695 122.6 300.802 122.647 300.882 122.74C300.975 122.82 301.022 122.927 301.022 123.06V123.94C301.369 123.487 301.802 123.12 302.322 122.84C302.855 122.547 303.535 122.4 304.362 122.4C305.229 122.4 305.962 122.593 306.562 122.98C307.175 123.353 307.635 123.88 307.942 124.56C308.262 125.227 308.422 126.007 308.422 126.9V132.54C308.422 132.673 308.375 132.787 308.282 132.88C308.202 132.96 308.095 133 307.962 133H306.962C306.829 133 306.715 132.96 306.622 132.88C306.542 132.787 306.502 132.673 306.502 132.54V127C306.502 126.067 306.275 125.34 305.822 124.82C305.369 124.287 304.702 124.02 303.822 124.02C302.995 124.02 302.329 124.287 301.822 124.82C301.329 125.34 301.082 126.067 301.082 127V132.54C301.082 132.673 301.035 132.787 300.942 132.88C300.862 132.96 300.755 133 300.622 133H299.622Z" fill="#303030"/>
<g filter="url(#filter1_ii_1101_624)">
<path fill-rule="evenodd" clip-rule="evenodd" d="M96.1191 320L183.88 170H376.12L463.881 320H96.1191Z" fill="url(#paint1_linear_1101_624)"/>
</g>
<path d="M234.438 253C234.262 253 234.118 252.944 234.006 252.832C233.894 252.72 233.838 252.584 233.838 252.424V236.8C233.838 236.624 233.894 236.48 234.006 236.368C234.118 236.256 234.262 236.2 234.438 236.2H236.334C236.558 236.2 236.726 236.264 236.838 236.392C236.95 236.504 237.022 236.592 237.054 236.656L241.686 245.296L246.366 236.656C246.398 236.592 246.47 236.504 246.582 236.392C246.694 236.264 246.862 236.2 247.086 236.2H248.958C249.134 236.2 249.278 236.256 249.39 236.368C249.502 236.48 249.558 236.624 249.558 236.8V252.424C249.558 252.584 249.502 252.72 249.39 252.832C249.278 252.944 249.134 253 248.958 253H246.942C246.766 253 246.622 252.944 246.51 252.832C246.414 252.72 246.366 252.584 246.366 252.424V242.032L243.006 248.44C242.926 248.584 242.822 248.712 242.694 248.824C242.566 248.92 242.398 248.968 242.19 248.968H241.206C240.982 248.968 240.806 248.92 240.678 248.824C240.566 248.712 240.47 248.584 240.39 248.44L237.03 242.032V252.424C237.03 252.584 236.974 252.72 236.862 252.832C236.75 252.944 236.614 253 236.454 253H234.438ZM258.379 253.24C256.603 253.24 255.195 252.728 254.155 251.704C253.115 250.68 252.555 249.224 252.475 247.336C252.459 247.176 252.451 246.976 252.451 246.736C252.451 246.48 252.459 246.28 252.475 246.136C252.539 244.92 252.811 243.88 253.291 243.016C253.787 242.136 254.467 241.464 255.331 241C256.195 240.52 257.211 240.28 258.379 240.28C259.675 240.28 260.763 240.552 261.643 241.096C262.523 241.624 263.187 242.368 263.635 243.328C264.083 244.272 264.307 245.368 264.307 246.616V247.12C264.307 247.28 264.251 247.416 264.139 247.528C264.027 247.64 263.883 247.696 263.707 247.696H255.739C255.739 247.696 255.739 247.72 255.739 247.768C255.739 247.816 255.739 247.856 255.739 247.888C255.755 248.448 255.859 248.968 256.051 249.448C256.259 249.912 256.555 250.288 256.939 250.576C257.339 250.864 257.811 251.008 258.355 251.008C258.803 251.008 259.179 250.944 259.483 250.816C259.787 250.672 260.035 250.512 260.227 250.336C260.419 250.16 260.555 250.016 260.635 249.904C260.779 249.712 260.891 249.6 260.971 249.568C261.067 249.52 261.203 249.496 261.379 249.496H263.443C263.603 249.496 263.731 249.544 263.827 249.64C263.939 249.736 263.987 249.856 263.971 250C263.955 250.256 263.819 250.568 263.563 250.936C263.323 251.304 262.971 251.664 262.507 252.016C262.043 252.368 261.459 252.664 260.755 252.904C260.067 253.128 259.275 253.24 258.379 253.24ZM255.739 245.68H261.043V245.608C261.043 244.984 260.939 244.44 260.731 243.976C260.523 243.496 260.219 243.128 259.819 242.872C259.419 242.6 258.939 242.464 258.379 242.464C257.819 242.464 257.339 242.6 256.939 242.872C256.539 243.128 256.235 243.496 256.027 243.976C255.835 244.44 255.739 244.984 255.739 245.608V245.68ZM267.43 253C267.27 253 267.134 252.944 267.022 252.832C266.91 252.72 266.854 252.584 266.854 252.424V241.096C266.854 240.936 266.91 240.8 267.022 240.688C267.134 240.576 267.27 240.52 267.43 240.52H269.398C269.558 240.52 269.694 240.576 269.806 240.688C269.918 240.8 269.974 240.936 269.974 241.096V242.08C270.39 241.568 270.918 241.144 271.558 240.808C272.214 240.456 273.022 240.28 273.982 240.28C274.958 240.28 275.806 240.504 276.526 240.952C277.246 241.384 277.798 242 278.182 242.8C278.582 243.6 278.782 244.56 278.782 245.68V252.424C278.782 252.584 278.726 252.72 278.614 252.832C278.502 252.944 278.366 253 278.206 253H276.094C275.934 253 275.798 252.944 275.686 252.832C275.574 252.72 275.518 252.584 275.518 252.424V245.824C275.518 244.896 275.286 244.168 274.822 243.64C274.374 243.112 273.718 242.848 272.854 242.848C272.022 242.848 271.358 243.112 270.862 243.64C270.366 244.168 270.118 244.896 270.118 245.824V252.424C270.118 252.584 270.062 252.72 269.95 252.832C269.838 252.944 269.702 253 269.542 253H267.43ZM287.33 253C286.37 253 285.562 252.832 284.906 252.496C284.25 252.16 283.762 251.664 283.442 251.008C283.122 250.336 282.962 249.504 282.962 248.512V243.064H281.066C280.906 243.064 280.77 243.008 280.658 242.896C280.546 242.784 280.49 242.64 280.49 242.464V241.096C280.49 240.936 280.546 240.8 280.658 240.688C280.77 240.576 280.906 240.52 281.066 240.52H282.962V236.536C282.962 236.376 283.01 236.24 283.106 236.128C283.218 236.016 283.362 235.96 283.538 235.96H285.482C285.642 235.96 285.778 236.016 285.89 236.128C286.002 236.24 286.058 236.376 286.058 236.536V240.52H289.058C289.218 240.52 289.354 240.576 289.466 240.688C289.578 240.8 289.634 240.936 289.634 241.096V242.464C289.634 242.64 289.578 242.784 289.466 242.896C289.354 243.008 289.218 243.064 289.058 243.064H286.058V248.272C286.058 248.928 286.17 249.44 286.394 249.808C286.634 250.176 287.042 250.36 287.618 250.36H289.274C289.434 250.36 289.57 250.416 289.682 250.528C289.794 250.64 289.85 250.776 289.85 250.936V252.424C289.85 252.584 289.794 252.72 289.682 252.832C289.57 252.944 289.434 253 289.274 253H287.33ZM297.499 253.24C296.219 253.24 295.139 253.016 294.259 252.568C293.395 252.12 292.731 251.488 292.267 250.672C291.819 249.856 291.563 248.904 291.499 247.816C291.483 247.528 291.475 247.176 291.475 246.76C291.475 246.344 291.483 245.992 291.499 245.704C291.563 244.6 291.827 243.648 292.291 242.848C292.771 242.032 293.443 241.4 294.307 240.952C295.187 240.504 296.251 240.28 297.499 240.28C298.747 240.28 299.803 240.504 300.667 240.952C301.547 241.4 302.219 242.032 302.683 242.848C303.163 243.648 303.435 244.6 303.499 245.704C303.515 245.992 303.523 246.344 303.523 246.76C303.523 247.176 303.515 247.528 303.499 247.816C303.435 248.904 303.171 249.856 302.707 250.672C302.259 251.488 301.595 252.12 300.715 252.568C299.851 253.016 298.779 253.24 297.499 253.24ZM297.499 250.864C298.347 250.864 299.003 250.6 299.467 250.072C299.931 249.528 300.187 248.736 300.235 247.696C300.251 247.456 300.259 247.144 300.259 246.76C300.259 246.376 300.251 246.064 300.235 245.824C300.187 244.784 299.931 244 299.467 243.472C299.003 242.928 298.347 242.656 297.499 242.656C296.651 242.656 295.995 242.928 295.531 243.472C295.067 244 294.811 244.784 294.763 245.824C294.747 246.064 294.739 246.376 294.739 246.76C294.739 247.144 294.747 247.456 294.763 247.696C294.811 248.736 295.067 249.528 295.531 250.072C295.995 250.6 296.651 250.864 297.499 250.864ZM306.758 253C306.598 253 306.462 252.944 306.35 252.832C306.238 252.72 306.182 252.584 306.182 252.424V241.12C306.182 240.944 306.238 240.8 306.35 240.688C306.462 240.576 306.598 240.52 306.758 240.52H308.702C308.862 240.52 308.998 240.576 309.11 240.688C309.238 240.8 309.302 240.944 309.302 241.12V242.104C309.67 241.592 310.142 241.2 310.718 240.928C311.31 240.656 311.99 240.52 312.758 240.52H313.742C313.918 240.52 314.054 240.576 314.15 240.688C314.262 240.8 314.318 240.936 314.318 241.096V242.824C314.318 242.984 314.262 243.12 314.15 243.232C314.054 243.344 313.918 243.4 313.742 243.4H311.87C311.102 243.4 310.502 243.616 310.07 244.048C309.654 244.464 309.446 245.056 309.446 245.824V252.424C309.446 252.584 309.39 252.72 309.278 252.832C309.166 252.944 309.022 253 308.846 253H306.758ZM320.918 253.24C319.958 253.24 319.134 253.128 318.446 252.904C317.774 252.68 317.222 252.4 316.79 252.064C316.358 251.728 316.038 251.392 315.83 251.056C315.622 250.72 315.51 250.44 315.494 250.216C315.478 250.04 315.526 249.904 315.638 249.808C315.766 249.696 315.902 249.64 316.046 249.64H317.942C318.006 249.64 318.062 249.648 318.11 249.664C318.158 249.68 318.222 249.728 318.302 249.808C318.51 249.984 318.726 250.168 318.95 250.36C319.19 250.552 319.47 250.72 319.79 250.864C320.11 250.992 320.51 251.056 320.99 251.056C321.614 251.056 322.134 250.936 322.55 250.696C322.982 250.44 323.198 250.08 323.198 249.616C323.198 249.28 323.102 249.008 322.91 248.8C322.734 248.592 322.398 248.408 321.902 248.248C321.406 248.072 320.702 247.888 319.79 247.696C318.894 247.488 318.15 247.224 317.558 246.904C316.966 246.584 316.526 246.184 316.238 245.704C315.95 245.224 315.806 244.664 315.806 244.024C315.806 243.4 315.99 242.808 316.358 242.248C316.742 241.672 317.302 241.2 318.038 240.832C318.79 240.464 319.718 240.28 320.822 240.28C321.686 240.28 322.438 240.392 323.078 240.616C323.718 240.824 324.246 241.088 324.662 241.408C325.094 241.728 325.422 242.056 325.646 242.392C325.87 242.712 325.99 242.992 326.006 243.232C326.022 243.408 325.974 243.552 325.862 243.664C325.75 243.76 325.622 243.808 325.478 243.808H323.702C323.622 243.808 323.55 243.792 323.486 243.76C323.422 243.728 323.358 243.688 323.294 243.64C323.118 243.48 322.926 243.312 322.718 243.136C322.51 242.944 322.254 242.784 321.95 242.656C321.662 242.528 321.278 242.464 320.798 242.464C320.19 242.464 319.726 242.6 319.406 242.872C319.086 243.128 318.926 243.456 318.926 243.856C318.926 244.128 318.998 244.368 319.142 244.576C319.302 244.768 319.614 244.952 320.078 245.128C320.542 245.304 321.246 245.488 322.19 245.68C323.262 245.872 324.11 246.16 324.734 246.544C325.374 246.912 325.822 247.344 326.078 247.84C326.35 248.32 326.486 248.856 326.486 249.448C326.486 250.168 326.27 250.816 325.838 251.392C325.422 251.968 324.798 252.424 323.966 252.76C323.15 253.08 322.134 253.24 320.918 253.24Z" fill="#303030"/>
<g filter="url(#filter2_ii_1101_624)">
<path fill-rule="evenodd" clip-rule="evenodd" d="M0 490L87.7613 340H472.239L560 490H0Z" fill="url(#paint2_linear_1101_624)"/>
</g>
<path d="M191.506 425C191.286 425 191.106 424.93 190.966 424.79C190.826 424.65 190.756 424.47 190.756 424.25V404.75C190.756 404.53 190.826 404.35 190.966 404.21C191.106 404.07 191.286 404 191.506 404H199.696C201.316 404 202.716 404.25 203.896 404.75C205.096 405.25 206.026 406.01 206.686 407.03C207.366 408.03 207.706 409.28 207.706 410.78C207.706 412.3 207.366 413.56 206.686 414.56C206.026 415.54 205.096 416.27 203.896 416.75C202.716 417.23 201.316 417.47 199.696 417.47H195.676V424.25C195.676 424.47 195.606 424.65 195.466 424.79C195.326 424.93 195.146 425 194.926 425H191.506ZM195.586 413.75H199.546C200.566 413.75 201.356 413.5 201.916 413C202.496 412.5 202.786 411.75 202.786 410.75C202.786 409.87 202.526 409.15 202.006 408.59C201.506 408.03 200.686 407.75 199.546 407.75H195.586V413.75ZM214.703 425.3C213.643 425.3 212.693 425.1 211.853 424.7C211.013 424.28 210.343 423.72 209.843 423.02C209.343 422.32 209.093 421.54 209.093 420.68C209.093 419.26 209.663 418.14 210.803 417.32C211.963 416.5 213.483 415.94 215.363 415.64L219.293 415.07V414.53C219.293 413.75 219.113 413.15 218.753 412.73C218.393 412.31 217.763 412.1 216.863 412.1C216.203 412.1 215.673 412.23 215.273 412.49C214.873 412.75 214.563 413.09 214.343 413.51C214.183 413.77 213.953 413.9 213.653 413.9H210.803C210.583 413.9 210.413 413.84 210.293 413.72C210.173 413.58 210.123 413.42 210.143 413.24C210.143 412.9 210.273 412.5 210.533 412.04C210.793 411.58 211.193 411.13 211.733 410.69C212.273 410.23 212.963 409.85 213.803 409.55C214.643 409.25 215.673 409.1 216.893 409.1C218.153 409.1 219.233 409.25 220.133 409.55C221.033 409.85 221.753 410.27 222.293 410.81C222.833 411.35 223.233 411.98 223.493 412.7C223.753 413.4 223.883 414.16 223.883 414.98V424.25C223.883 424.47 223.813 424.65 223.673 424.79C223.533 424.93 223.353 425 223.133 425H220.193C219.993 425 219.823 424.93 219.683 424.79C219.543 424.65 219.473 424.47 219.473 424.25V423.14C219.213 423.52 218.863 423.88 218.423 424.22C217.983 424.54 217.453 424.8 216.833 425C216.233 425.2 215.523 425.3 214.703 425.3ZM215.903 422.18C216.563 422.18 217.153 422.04 217.673 421.76C218.193 421.48 218.603 421.05 218.903 420.47C219.203 419.89 219.353 419.16 219.353 418.28V417.77L216.563 418.22C215.483 418.4 214.693 418.67 214.193 419.03C213.693 419.39 213.443 419.83 213.443 420.35C213.443 420.73 213.553 421.06 213.773 421.34C214.013 421.62 214.323 421.83 214.703 421.97C215.083 422.11 215.483 422.18 215.903 422.18ZM228.235 425C228.035 425 227.865 424.93 227.725 424.79C227.585 424.65 227.515 424.47 227.515 424.25V410.15C227.515 409.95 227.585 409.78 227.725 409.64C227.865 409.48 228.035 409.4 228.235 409.4H231.175C231.375 409.4 231.545 409.48 231.685 409.64C231.845 409.78 231.925 409.95 231.925 410.15V411.35C232.425 410.73 233.035 410.25 233.755 409.91C234.495 409.57 235.345 409.4 236.305 409.4H237.595C237.795 409.4 237.965 409.47 238.105 409.61C238.245 409.75 238.315 409.93 238.315 410.15V412.73C238.315 412.95 238.245 413.13 238.105 413.27C237.965 413.41 237.795 413.48 237.595 413.48H234.955C234.075 413.48 233.385 413.73 232.885 414.23C232.385 414.71 232.135 415.4 232.135 416.3V424.25C232.135 424.47 232.065 424.65 231.925 424.79C231.785 424.93 231.605 425 231.385 425H228.235ZM248.053 425C246.813 425 245.753 424.8 244.873 424.4C243.993 423.98 243.323 423.34 242.863 422.48C242.423 421.62 242.203 420.54 242.203 419.24V412.94H239.863C239.643 412.94 239.463 412.87 239.323 412.73C239.183 412.59 239.113 412.41 239.113 412.19V410.15C239.113 409.93 239.183 409.75 239.323 409.61C239.463 409.47 239.643 409.4 239.863 409.4H242.203V404.45C242.203 404.23 242.273 404.05 242.413 403.91C242.573 403.77 242.753 403.7 242.953 403.7H245.893C246.113 403.7 246.293 403.77 246.433 403.91C246.573 404.05 246.643 404.23 246.643 404.45V409.4H250.393C250.593 409.4 250.763 409.47 250.903 409.61C251.043 409.75 251.113 409.93 251.113 410.15V412.19C251.113 412.41 251.043 412.59 250.903 412.73C250.763 412.87 250.593 412.94 250.393 412.94H246.643V418.88C246.643 419.64 246.773 420.24 247.033 420.68C247.313 421.1 247.793 421.31 248.473 421.31H250.663C250.863 421.31 251.033 421.38 251.173 421.52C251.313 421.66 251.383 421.83 251.383 422.03V424.25C251.383 424.47 251.313 424.65 251.173 424.79C251.033 424.93 250.863 425 250.663 425H248.053ZM254.72 425C254.52 425 254.35 424.93 254.21 424.79C254.07 424.65 254 424.47 254 424.25V410.15C254 409.93 254.07 409.75 254.21 409.61C254.35 409.47 254.52 409.4 254.72 409.4H257.72C257.94 409.4 258.12 409.47 258.26 409.61C258.4 409.75 258.47 409.93 258.47 410.15V424.25C258.47 424.47 258.4 424.65 258.26 424.79C258.12 424.93 257.94 425 257.72 425H254.72ZM254.63 407C254.43 407 254.26 406.93 254.12 406.79C253.98 406.65 253.91 406.47 253.91 406.25V403.85C253.91 403.63 253.98 403.45 254.12 403.31C254.26 403.15 254.43 403.07 254.63 403.07H257.78C258 403.07 258.18 403.15 258.32 403.31C258.48 403.45 258.56 403.63 258.56 403.85V406.25C258.56 406.47 258.48 406.65 258.32 406.79C258.18 406.93 258 407 257.78 407H254.63ZM269.279 425.3C267.819 425.3 266.529 425.03 265.409 424.49C264.309 423.95 263.439 423.17 262.799 422.15C262.159 421.11 261.809 419.87 261.749 418.43C261.729 418.11 261.719 417.71 261.719 417.23C261.719 416.73 261.729 416.32 261.749 416C261.809 414.54 262.149 413.3 262.769 412.28C263.409 411.24 264.289 410.45 265.409 409.91C266.529 409.37 267.819 409.1 269.279 409.1C270.619 409.1 271.759 409.29 272.699 409.67C273.639 410.03 274.409 410.49 275.009 411.05C275.609 411.61 276.049 412.2 276.329 412.82C276.629 413.42 276.789 413.95 276.809 414.41C276.829 414.61 276.759 414.79 276.599 414.95C276.459 415.09 276.289 415.16 276.089 415.16H272.879C272.679 415.16 272.519 415.11 272.399 415.01C272.299 414.89 272.199 414.73 272.099 414.53C271.819 413.83 271.459 413.33 271.019 413.03C270.579 412.73 270.029 412.58 269.369 412.58C268.469 412.58 267.759 412.87 267.239 413.45C266.719 414.03 266.439 414.93 266.399 416.15C266.379 416.93 266.379 417.64 266.399 418.28C266.459 419.52 266.739 420.42 267.239 420.98C267.759 421.54 268.469 421.82 269.369 421.82C270.069 421.82 270.629 421.67 271.049 421.37C271.469 421.07 271.819 420.57 272.099 419.87C272.179 419.67 272.279 419.52 272.399 419.42C272.519 419.3 272.679 419.24 272.879 419.24H276.089C276.289 419.24 276.459 419.32 276.599 419.48C276.759 419.62 276.829 419.79 276.809 419.99C276.789 420.33 276.689 420.73 276.509 421.19C276.349 421.65 276.079 422.12 275.699 422.6C275.339 423.08 274.869 423.53 274.289 423.95C273.709 424.35 272.999 424.68 272.159 424.94C271.339 425.18 270.379 425.3 269.279 425.3ZM280.472 425C280.272 425 280.102 424.93 279.962 424.79C279.822 424.65 279.752 424.47 279.752 424.25V410.15C279.752 409.93 279.822 409.75 279.962 409.61C280.102 409.47 280.272 409.4 280.472 409.4H283.472C283.692 409.4 283.872 409.47 284.012 409.61C284.152 409.75 284.222 409.93 284.222 410.15V424.25C284.222 424.47 284.152 424.65 284.012 424.79C283.872 424.93 283.692 425 283.472 425H280.472ZM280.382 407C280.182 407 280.012 406.93 279.872 406.79C279.732 406.65 279.662 406.47 279.662 406.25V403.85C279.662 403.63 279.732 403.45 279.872 403.31C280.012 403.15 280.182 403.07 280.382 403.07H283.532C283.752 403.07 283.932 403.15 284.072 403.31C284.232 403.45 284.312 403.63 284.312 403.85V406.25C284.312 406.47 284.232 406.65 284.072 406.79C283.932 406.93 283.752 407 283.532 407H280.382ZM289.525 430.7C289.305 430.7 289.125 430.63 288.985 430.49C288.845 430.35 288.775 430.17 288.775 429.95V410.15C288.775 409.93 288.845 409.75 288.985 409.61C289.125 409.47 289.305 409.4 289.525 409.4H292.375C292.595 409.4 292.775 409.47 292.915 409.61C293.055 409.75 293.125 409.93 293.125 410.15V411.29C293.605 410.65 294.225 410.13 294.985 409.73C295.745 409.31 296.695 409.1 297.835 409.1C298.875 409.1 299.775 409.27 300.535 409.61C301.315 409.93 301.965 410.4 302.485 411.02C303.025 411.62 303.435 412.35 303.715 413.21C304.015 414.07 304.185 415.04 304.225 416.12C304.245 416.5 304.255 416.86 304.255 417.2C304.255 417.54 304.245 417.91 304.225 418.31C304.205 419.33 304.045 420.27 303.745 421.13C303.465 421.99 303.055 422.73 302.515 423.35C301.975 423.97 301.315 424.45 300.535 424.79C299.775 425.13 298.875 425.3 297.835 425.3C296.815 425.3 295.925 425.12 295.165 424.76C294.425 424.38 293.815 423.87 293.335 423.23V429.95C293.335 430.17 293.265 430.35 293.125 430.49C292.985 430.63 292.815 430.7 292.615 430.7H289.525ZM296.485 421.7C297.245 421.7 297.845 421.54 298.285 421.22C298.725 420.88 299.035 420.44 299.215 419.9C299.415 419.36 299.535 418.77 299.575 418.13C299.615 417.51 299.615 416.89 299.575 416.27C299.535 415.63 299.415 415.04 299.215 414.5C299.035 413.96 298.725 413.53 298.285 413.21C297.845 412.87 297.245 412.7 296.485 412.7C295.745 412.7 295.145 412.87 294.685 413.21C294.225 413.55 293.895 413.98 293.695 414.5C293.495 415.02 293.375 415.58 293.335 416.18C293.315 416.54 293.305 416.91 293.305 417.29C293.305 417.67 293.315 418.05 293.335 418.43C293.355 418.99 293.475 419.52 293.695 420.02C293.935 420.5 294.275 420.9 294.715 421.22C295.175 421.54 295.765 421.7 296.485 421.7ZM312.027 425.3C310.967 425.3 310.017 425.1 309.177 424.7C308.337 424.28 307.667 423.72 307.167 423.02C306.667 422.32 306.417 421.54 306.417 420.68C306.417 419.26 306.987 418.14 308.127 417.32C309.287 416.5 310.807 415.94 312.687 415.64L316.617 415.07V414.53C316.617 413.75 316.437 413.15 316.077 412.73C315.717 412.31 315.087 412.1 314.187 412.1C313.527 412.1 312.997 412.23 312.597 412.49C312.197 412.75 311.887 413.09 311.667 413.51C311.507 413.77 311.277 413.9 310.977 413.9H308.127C307.907 413.9 307.737 413.84 307.617 413.72C307.497 413.58 307.447 413.42 307.467 413.24C307.467 412.9 307.597 412.5 307.857 412.04C308.117 411.58 308.517 411.13 309.057 410.69C309.597 410.23 310.287 409.85 311.127 409.55C311.967 409.25 312.997 409.1 314.217 409.1C315.477 409.1 316.557 409.25 317.457 409.55C318.357 409.85 319.077 410.27 319.617 410.81C320.157 411.35 320.557 411.98 320.817 412.7C321.077 413.4 321.207 414.16 321.207 414.98V424.25C321.207 424.47 321.137 424.65 320.997 424.79C320.857 424.93 320.677 425 320.457 425H317.517C317.317 425 317.147 424.93 317.007 424.79C316.867 424.65 316.797 424.47 316.797 424.25V423.14C316.537 423.52 316.187 423.88 315.747 424.22C315.307 424.54 314.777 424.8 314.157 425C313.557 425.2 312.847 425.3 312.027 425.3ZM313.227 422.18C313.887 422.18 314.477 422.04 314.997 421.76C315.517 421.48 315.927 421.05 316.227 420.47C316.527 419.89 316.677 419.16 316.677 418.28V417.77L313.887 418.22C312.807 418.4 312.017 418.67 311.517 419.03C311.017 419.39 310.767 419.83 310.767 420.35C310.767 420.73 310.877 421.06 311.097 421.34C311.337 421.62 311.647 421.83 312.027 421.97C312.407 422.11 312.807 422.18 313.227 422.18ZM325.56 425C325.36 425 325.19 424.93 325.05 424.79C324.91 424.65 324.84 424.47 324.84 424.25V410.15C324.84 409.93 324.91 409.75 325.05 409.61C325.19 409.47 325.36 409.4 325.56 409.4H328.5C328.72 409.4 328.9 409.47 329.04 409.61C329.18 409.75 329.25 409.93 329.25 410.15V411.32C329.77 410.68 330.44 410.15 331.26 409.73C332.08 409.31 333.08 409.1 334.26 409.1C335.44 409.1 336.47 409.37 337.35 409.91C338.25 410.43 338.95 411.2 339.45 412.22C339.97 413.22 340.23 414.44 340.23 415.88V424.25C340.23 424.47 340.15 424.65 339.99 424.79C339.85 424.93 339.68 425 339.48 425H336.3C336.08 425 335.9 424.93 335.76 424.79C335.62 424.65 335.55 424.47 335.55 424.25V416.06C335.55 415 335.29 414.18 334.77 413.6C334.27 413 333.53 412.7 332.55 412.7C331.61 412.7 330.86 413 330.3 413.6C329.74 414.18 329.46 415 329.46 416.06V424.25C329.46 424.47 329.39 424.65 329.25 424.79C329.11 424.93 328.94 425 328.74 425H325.56ZM351.148 425C349.908 425 348.848 424.8 347.968 424.4C347.088 423.98 346.418 423.34 345.958 422.48C345.518 421.62 345.298 420.54 345.298 419.24V412.94H342.958C342.738 412.94 342.558 412.87 342.418 412.73C342.278 412.59 342.208 412.41 342.208 412.19V410.15C342.208 409.93 342.278 409.75 342.418 409.61C342.558 409.47 342.738 409.4 342.958 409.4H345.298V404.45C345.298 404.23 345.368 404.05 345.508 403.91C345.668 403.77 345.848 403.7 346.048 403.7H348.988C349.208 403.7 349.388 403.77 349.528 403.91C349.668 404.05 349.738 404.23 349.738 404.45V409.4H353.488C353.688 409.4 353.858 409.47 353.998 409.61C354.138 409.75 354.208 409.93 354.208 410.15V412.19C354.208 412.41 354.138 412.59 353.998 412.73C353.858 412.87 353.688 412.94 353.488 412.94H349.738V418.88C349.738 419.64 349.868 420.24 350.128 420.68C350.408 421.1 350.888 421.31 351.568 421.31H353.758C353.958 421.31 354.128 421.38 354.268 421.52C354.408 421.66 354.478 421.83 354.478 422.03V424.25C354.478 424.47 354.408 424.65 354.268 424.79C354.128 424.93 353.958 425 353.758 425H351.148ZM363.245 425.3C362.005 425.3 360.935 425.16 360.035 424.88C359.155 424.58 358.435 424.22 357.875 423.8C357.335 423.38 356.925 422.96 356.645 422.54C356.385 422.1 356.245 421.73 356.225 421.43C356.205 421.21 356.275 421.03 356.435 420.89C356.595 420.75 356.755 420.68 356.915 420.68H359.825C359.885 420.68 359.945 420.69 360.005 420.71C360.065 420.73 360.125 420.78 360.185 420.86C360.445 421.04 360.715 421.25 360.995 421.49C361.275 421.71 361.595 421.9 361.955 422.06C362.335 422.22 362.805 422.3 363.365 422.3C364.025 422.3 364.585 422.17 365.045 421.91C365.505 421.63 365.735 421.24 365.735 420.74C365.735 420.38 365.625 420.08 365.405 419.84C365.205 419.6 364.815 419.38 364.235 419.18C363.655 418.98 362.795 418.76 361.655 418.52C360.575 418.28 359.655 417.96 358.895 417.56C358.135 417.16 357.565 416.66 357.185 416.06C356.805 415.44 356.615 414.7 356.615 413.84C356.615 413.06 356.855 412.31 357.335 411.59C357.835 410.87 358.565 410.28 359.525 409.82C360.485 409.34 361.685 409.1 363.125 409.1C364.225 409.1 365.185 409.24 366.005 409.52C366.845 409.78 367.545 410.12 368.105 410.54C368.665 410.94 369.085 411.36 369.365 411.8C369.665 412.22 369.825 412.59 369.845 412.91C369.865 413.11 369.805 413.28 369.665 413.42C369.525 413.56 369.365 413.63 369.185 413.63H366.515C366.415 413.63 366.325 413.62 366.245 413.6C366.165 413.56 366.095 413.51 366.035 413.45C365.795 413.29 365.545 413.11 365.285 412.91C365.045 412.69 364.755 412.5 364.415 412.34C364.075 412.18 363.635 412.1 363.095 412.1C362.435 412.1 361.925 412.25 361.565 412.55C361.225 412.83 361.055 413.19 361.055 413.63C361.055 413.91 361.145 414.17 361.325 414.41C361.505 414.65 361.875 414.87 362.435 415.07C362.995 415.27 363.845 415.48 364.985 415.7C366.345 415.94 367.425 416.3 368.225 416.78C369.025 417.26 369.595 417.82 369.935 418.46C370.295 419.08 370.475 419.75 370.475 420.47C370.475 421.41 370.195 422.25 369.635 422.99C369.075 423.71 368.255 424.28 367.175 424.7C366.115 425.1 364.805 425.3 363.245 425.3Z" fill="#303030"/>
<defs>
<filter id="filter0_ii_1101_624" x="177.7" y="0" width="204.596" height="150" filterUnits="userSpaceOnUse" color-interpolation-filters="sRGB">
<feFlood flood-opacity="0" result="BackgroundImageFix"/>
<feBlend mode="normal" in="SourceGraphic" in2="BackgroundImageFix" result="shape"/>
<feColorMatrix in="SourceAlpha" type="matrix" values="0 0 0 0 0 0 0 0 0 0 0 0 0 0 0 0 0 0 127 0" result="hardAlpha"/>
<feOffset dx="14.5361"/>
<feGaussianBlur stdDeviation="7.26806"/>
<feComposite in2="hardAlpha" operator="arithmetic" k2="-1" k3="1"/>
<feColorMatrix type="matrix" values="0 0 0 0 1 0 0 0 0 0.601569 0 0 0 0 0.00254902 0 0 0 1 0"/>
<feBlend mode="normal" in2="shape" result="effect1_innerShadow_1101_624"/>
<feColorMatrix in="SourceAlpha" type="matrix" values="0 0 0 0 0 0 0 0 0 0 0 0 0 0 0 0 0 0 127 0" result="hardAlpha"/>
<feOffset dx="-14.5361"/>
<feGaussianBlur stdDeviation="7.26806"/>
<feComposite in2="hardAlpha" operator="arithmetic" k2="-1" k3="1"/>
<feColorMatrix type="matrix" values="0 0 0 0 0.625 0 0 0 0 0.289216 0 0 0 0 0.00122549 0 0 0 1 0"/>
<feBlend mode="normal" in2="effect1_innerShadow_1101_624" result="effect2_innerShadow_1101_624"/>
</filter>
<filter id="filter1_ii_1101_624" x="71.6978" y="170" width="416.604" height="150" filterUnits="userSpaceOnUse" color-interpolation-filters="sRGB">
<feFlood flood-opacity="0" result="BackgroundImageFix"/>
<feBlend mode="normal" in="SourceGraphic" in2="BackgroundImageFix" result="shape"/>
<feColorMatrix in="SourceAlpha" type="matrix" values="0 0 0 0 0 0 0 0 0 0 0 0 0 0 0 0 0 0 127 0" result="hardAlpha"/>
<feOffset dx="24.4214"/>
<feGaussianBlur stdDeviation="12.2107"/>
<feComposite in2="hardAlpha" operator="arithmetic" k2="-1" k3="1"/>
<feColorMatrix type="matrix" values="0 0 0 0 1 0 0 0 0 0.608047 0 0 0 0 0.00257647 0 0 0 1 0"/>
<feBlend mode="normal" in2="shape" result="effect1_innerShadow_1101_624"/>
<feColorMatrix in="SourceAlpha" type="matrix" values="0 0 0 0 0 0 0 0 0 0 0 0 0 0 0 0 0 0 127 0" result="hardAlpha"/>
<feOffset dx="-24.4214"/>
<feGaussianBlur stdDeviation="12.2107"/>
<feComposite in2="hardAlpha" operator="arithmetic" k2="-1" k3="1"/>
<feColorMatrix type="matrix" values="0 0 0 0 0.6075 0 0 0 0 0.281118 0 0 0 0 0.00119118 0 0 0 1 0"/>
<feBlend mode="normal" in2="effect1_innerShadow_1101_624" result="effect2_innerShadow_1101_624"/>
</filter>
<filter id="filter2_ii_1101_624" x="-34.2687" y="338.803" width="628.537" height="152.393" filterUnits="userSpaceOnUse" color-interpolation-filters="sRGB">
<feFlood flood-opacity="0" result="BackgroundImageFix"/>
<feBlend mode="normal" in="SourceGraphic" in2="BackgroundImageFix" result="shape"/>
<feColorMatrix in="SourceAlpha" type="matrix" values="0 0 0 0 0 0 0 0 0 0 0 0 0 0 0 0 0 0 127 0" result="hardAlpha"/>
<feOffset dx="34.2687" dy="1.19669"/>
<feGaussianBlur stdDeviation="17.1448"/>
<feComposite in2="hardAlpha" operator="arithmetic" k2="-1" k3="1"/>
<feColorMatrix type="matrix" values="0 0 0 0 1 0 0 0 0 0.610824 0 0 0 0 0.00258824 0 0 0 1 0"/>
<feBlend mode="normal" in2="shape" result="effect1_innerShadow_1101_624"/>
<feColorMatrix in="SourceAlpha" type="matrix" values="0 0 0 0 0 0 0 0 0 0 0 0 0 0 0 0 0 0 127 0" result="hardAlpha"/>
<feOffset dx="-34.2687" dy="-1.19669"/>
<feGaussianBlur stdDeviation="17.1448"/>
<feComposite in2="hardAlpha" operator="arithmetic" k2="-1" k3="1"/>
<feColorMatrix type="matrix" values="0 0 0 0 0.6 0 0 0 0 0.277647 0 0 0 0 0.00117647 0 0 0 1 0"/>
<feBlend mode="normal" in2="effect1_innerShadow_1101_624" result="effect2_innerShadow_1101_624"/>
</filter>
<linearGradient id="paint0_linear_1101_624" x1="192.236" y1="75" x2="367.759" y2="75" gradientUnits="userSpaceOnUse">
<stop stop-color="#FF9101"/>
<stop offset="1" stop-color="#B35300"/>
</linearGradient>
<linearGradient id="paint1_linear_1101_624" x1="96.1191" y1="245" x2="463.881" y2="245" gradientUnits="userSpaceOnUse">
<stop stop-color="#FF9201"/>
<stop offset="1" stop-color="#AF5100"/>
</linearGradient>
<linearGradient id="paint2_linear_1101_624" x1="-9.08979" y1="409.723" x2="541.887" y2="481.554" gradientUnits="userSpaceOnUse">
<stop stop-color="#FF9201"/>
<stop offset="1" stop-color="#AD5000"/>
</linearGradient>
</defs>
</svg>
